/* XPM */
static char *_2c88d2030f54c64e8751c511d0cb734jZrWAvkKdAr8yIoc[] = {
/* columns rows colors chars-per-pixel */
"64 64 254 2 ",
"   c #333018",
".  c #36362D",
"X  c #543E16",
"o  c #473C32",
"O  c #544418",
"+  c #6E4F0D",
"@  c #584C2A",
"#  c #444537",
"$  c #564D37",
"%  c #695A38",
"&  c #7A5B37",
"*  c #6D522C",
"=  c #796736",
"-  c #756736",
";  c #78611E",
":  c #3A4743",
">  c #4A4A46",
",  c #4A5549",
"<  c #565649",
"1  c #575759",
"2  c #4C5650",
"3  c #665B47",
"4  c #775947",
"5  c #655750",
"6  c #596555",
"7  c #796946",
"8  c #797348",
"9  c #686658",
"0  c #7A6857",
"q  c #726E52",
"w  c #596D6F",
"e  c #656865",
"r  c #797767",
"t  c #697778",
"y  c #797B76",
"u  c #6B6F69",
"i  c #5A5F62",
"p  c #8B5216",
"a  c #98593A",
"s  c #8B582E",
"d  c #896A29",
"f  c #96672A",
"g  c #97742C",
"h  c #876737",
"j  c #976735",
"k  c #8A743A",
"l  c #9D7B35",
"z  c #9B7B3B",
"x  c #967538",
"c  c #8C7129",
"v  c #A37C3B",
"b  c #A67A39",
"n  c #A76F38",
"m  c #8F6029",
"M  c #875A45",
"N  c #935B47",
"B  c #856C4A",
"V  c #956946",
"C  c #8B7A4C",
"Z  c #897646",
"A  c #967A48",
"S  c #856A54",
"D  c #887857",
"F  c #977C57",
"G  c #936E54",
"H  c #A86946",
"J  c #A77B45",
"K  c #A57A57",
"L  c #B47750",
"P  c #887864",
"I  c #8C796D",
"U  c #A67B61",
"Y  c #A35E49",
"T  c #C07E64",
"R  c #7B837C",
"E  c #7B865B",
"W  c #9D833B",
"Q  c #A4833C",
"!  c #AA843D",
"~  c #AA883A",
"^  c #B3883C",
"/  c #AB8B37",
"(  c #99834A",
")  c #8C8259",
"_  c #998657",
"`  c #928550",
"'  c #A48444",
"]  c #AA8543",
"[  c #AC8B44",
"{  c #A4844C",
"}  c #AB854B",
"|  c #AC8C4B",
" . c #A58A48",
".. c #B28C45",
"X. c #B28D4C",
"o. c #B68949",
"O. c #AC9249",
"+. c #B29245",
"@. c #B4934B",
"#. c #BA944C",
"$. c #BB9B4D",
"%. c #B79749",
"&. c #AC8C54",
"*. c #AC8C5B",
"=. c #A58858",
"-. c #B38D53",
";. c #B68B56",
":. c #AC935B",
">. c #AA9455",
",. c #B49353",
"<. c #BB9553",
"1. c #B59953",
"2. c #BC9B53",
"3. c #B4945B",
"4. c #BB955B",
"5. c #B49B5B",
"6. c #BC9B5B",
"7. c #BDA15C",
"8. c #8A8767",
"9. c #978866",
"0. c #9C9369",
"q. c #888777",
"w. c #9B8B78",
"e. c #9A9576",
"r. c #869478",
"t. c #A78A66",
"y. c #B78A64",
"u. c #A89668",
"i. c #B49462",
"p. c #B49C63",
"a. c #BB9C64",
"s. c #BC9B6B",
"d. c #B69769",
"f. c #A79876",
"g. c #B69C76",
"h. c #A68D76",
"j. c #BCA36B",
"k. c #B9A366",
"l. c #AAA378",
"z. c #BBA473",
"x. c #B9A679",
"c. c #BDB471",
"v. c #C3964A",
"b. c #C29C55",
"n. c #C39D5B",
"m. c #C79956",
"M. c #C28848",
"N. c #C5A35C",
"B. c #C8A457",
"V. c #D0A759",
"C. c #C49D62",
"Z. c #C59968",
"A. c #C69C75",
"S. c #D0906B",
"D. c #C3A363",
"F. c #CBA463",
"G. c #C3A46C",
"H. c #CAAA69",
"J. c #D3A96A",
"K. c #C3A373",
"L. c #C5AB73",
"P. c #CAA978",
"I. c #D4A876",
"U. c #CCB37C",
"Y. c #C9B375",
"T. c #D4B578",
"R. c #CFB26B",
"E. c #E3B470",
"W. c #D7C27D",
"Q. c #5D7885",
"!. c #697E86",
"~. c #7A8686",
"^. c #6A8690",
"/. c #6A89AA",
"(. c #8F928B",
"). c #A89B88",
"_. c #A69B94",
"`. c #B19B8A",
"'. c #B9A887",
"]. c #BCB388",
"[. c #A7A498",
"{. c #B7A896",
"}. c #BAB598",
"|. c #A9A388",
" X c #969DA5",
".X c #93A5A4",
"XX c #B6B5AB",
"oX c #9FA18C",
"OX c #C6AC86",
"+X c #D6AB89",
"@X c #CDBB8C",
"#X c #C8B487",
"$X c #D3B484",
"%X c #D6B988",
"&X c #C3AC95",
"*X c #C8B796",
"=X c #D5BA95",
"-X c #E6B88F",
";X c #C7B8A9",
":X c #D7BAA3",
">X c #C6BEB6",
",X c #C39D85",
"<X c #BDC3B0",
"1X c #D9C38A",
"2X c #D5C293",
"3X c #D9C79A",
"4X c #CFC594",
"5X c #E4CA9A",
"6X c #E8D39B",
"7X c #E7C991",
"8X c #D9C9A8",
"9X c #DCD2AB",
"0X c #CAC6B5",
"qX c #D5C7B4",
"wX c #DBD5B8",
"eX c #C9C6AA",
"rX c #E5CBA8",
"tX c #E7D5A9",
"yX c #F3DBAA",
"uX c #E4CBB6",
"iX c #E4D4B3",
"pX c #E9D9B5",
"aX c #F3D7B9",
"sX c #F6CCAF",
"dX c #ECE3BC",
"fX c #F6E5BA",
"gX c #F2E1AF",
"hX c #BDBCC5",
"jX c #98AEC3",
"kX c #B8C3CD",
"lX c #D5CBC7",
"zX c #D9D6CA",
"xX c #CAC9D3",
"cX c #D5CDD4",
"vX c #D9D7D8",
"bX c #C8CBCA",
"nX c #E7DBC7",
"mX c #E5DCD8",
"MX c #F8DEC5",
"NX c #DDE4D9",
"BX c #EAE4CA",
"VX c #F7E7C6",
"CX c #E7E4D8",
"ZX c #F6E7D6",
"AX c #FEF4DA",
"SX c #DDDBE2",
"DX c #DCD8E6",
"FX c #CBD6E0",
"GX c #E3DDE5",
"HX c #DEE3E5",
"JX c #E4E3E4",
"KX c #E8E7E8",
"LX c #F2EAE8",
"PX c #F4F1F0",
/* pixels */
"dXpXgX3X#XyX2X6XyX$Xg.].].iX3X%Xu.E _ & g / / ~ d h n v c W W J o...g g g ~  .{ &.{  .k - u.e.oX}.0XNXPXLXmX{.|.8X*X[.wXtX6XtXyX",
"9XdXgX6XyX2X1X2XT.7X5X4X*X*X-X5XW 0.C - l ~ ^ +.J ; v J Q l c b J v.^ g ~ 1.@.' j A A A % = l.r ) }.SXHXKXeXe.9X=X{.(.{.6X6X6XrX",
"q }.fX4X2XP.2XP.1X7X#XtXx.#XOXd.` _ @ k z l g ] } &.v [ W ] ] v J <.#.! O.! | } j | &.p.( - 9.l.e.}.XXGXPX[.f.9X*X`._.(.5X6X6X5X",
"}.8.8X9X=X@XOXfX3XtX3Xx.3XtX5X` u.= - =.j c f [ X.' &.x A ] Q ,.b v ! ~ ~ l ,.' ,.4.&.x ( ` % l.0.f.{.GXKX8.].3X*X&XXXq.#XsXrX6X",
"XX[.).MX8X3X5X-X3X2X@X4X#X6X@X_ ` - Z ( d ' { ] W |  .{ | ' X.] ' } ~ ~ +.O.#.z n.,.4.z { z.7 C l.) ;X>XCXe.4X5X{.:XhXq.`.rX6X5X",
"[.[.(.qX3X=X5XyX#X4X@X4X%X7X7._ - Z k c A &.1.l l ] O.| ] n.[ | } ,.! W Q ~ g ] J z g ,.5.>.` - 0.) h.{.*X|.@X@X&XlX>X_.f.rXyX5X",
"(.[.(.wXuX=X=X=X3X].c.2X3XY.>.` - ( ( z &.A [ [ Q l W  .<.v ,.' J >.O.Q ~ +.Q F.b.l d  .1.k ( k 8 l.B '.e.}.6X4X>XcXlX{.w.8XrXrX",
" X Xq.nX8XOX%XOXtX9X#XU.7Xp._ - h k g W 5.W b ! v [ ,.>.Q #.,.x x { O.l +.B.[ [ v g #.] [ ' k._ = _ C x.l.4X9X].mXvXlXXX(.&X8XiX",
"FX~.(.BX=Xg.rXyX3X4X@X5X$X&.` = Z c Q ! } ' ~ ^ +.[ ' d Q ! >.` * >.,.Q [ ~ O.! ] ] 2.#.%.| | &.C 8 k.% c.9X4X}.DXxXcXlXXX;XnXuX",
"FXt oXwX2X5XrX=X4X4X=X5XP.F ` = ' N.! ! | W / ^ ^ b k d 1.( :.Z O :.>.1.B.~ ! [ o.[ <.@.1.g ' { _ - _ D ].9X].<XKXDXxXlXhXXXqXZX",
"kXt }.9X=X$X@XrXeX#XrX#X=.=.- ( z + @.X.d ..l v.v.#.z { &.:.u.8 O z.k.W @.%.#.#.v 1.@.] [ v <.&.5.k 8 u.*X8X].CXHXHXDXDXXXXXwXBX",
"jXw <X@X5X#X'.9X@X@X1Xd.A A - ` v + g l ! @.^ v.v.] -.5.` g.e.% O x.j. .+.+.g } <.4.l ! ! 2.<.' >.C - F u.*XeXNXFXPXKXDXhXkXzXBX",
"/.^.0X` s.rX@X*X3X@X$X*.F B Z ( ' 2.g g #.^ #...b b.| =.l.8.u $ % ].k. .O.7...b.b.4.| 2.! ] v X.d >.8 C ,XOXnXCXNXHXvXGXkXxXJXCX",
"/.~.eX6X=X@XiX8X2XL.P.&.K h k >.| <.@.~ l b o.b.+.#.' z.e.9 9 # @ l.p.>.$.$.n.<.| z z [ 7.V.2.<. .>.C h d.'.LXvXNXxXvXKXhXhXPXKX",
"/.^.BX3Xz.5X9X8X@XT.&.*.A = >. .1.-.[ +.~ ..] 4.Q +.' u.9 w R 6 q ` p.1.O.O.<.n.3.4.1.| 1.#.#.! + :.K.A y.g.mXHXvXKXKXvXlXbXPXPX",
"/..XeX5X%Xx.iX9X1X1X;.} = ` O.(  .c O.~ ! #.-.n.+.O.j.B 6 t R : . O l.3.O.N.X.6.&.4.] ,.[ [ @.X.z | 3.=.3.u.;XJXHXJXJXCXGXxXLXNX",
"Q./.dX4X4X3XiX4X%XT.L b j i.1.Q O.g 2.@.@.] O.' b H.x.7 h S t 6     & d.3.3.6.1.| ,.o.m.@.%.#.$.Q | o.! n.a.{.ZXcXHXKXGXDXvXCXZX",
"^.[.dX4X4XtX9X4X1XF.} H J 4.1.O.7.R.| 1.#.Q ' Q J } f.% h M ~.: $ % @ F A H.4.1.5.,.J ;.<.D.2...l b.m.~ #.L.g.ZXzXvXvXDXDXcXwXAX",
"R kXwX6XrXiX9X*XP.#.J J ;.N.| c W 7.W X.<.@.7.H.<.P.l.% 4 4 e 6 E 4X3.| ! B.%.W W W o.;.,.1.| } C.X...#.B.G._ qXNXHXGXDXKXvX0XAX",
"R <XwXc.pXaXl.'.1X#.n n n } l Q 7.7.2.2.X.#.1.2.2.Z.9.% M 4 e e - c.O.N.B.B.%.$.$.+.#.;.,.,.X.4.&.Q v.v.X.L.t.{.mXHXDXSXJXJX0XnX",
"~.zX9X5XrXaXiX#XG.Q n o.b v x 2.D.| 4.-.' n.2.1.X.i.9.3 U 0 6 u 8 c.k.Q $./ B.$.+.%.$.2.2.@.o.X.1.[ 2.<.&.z.z.h.KXSXcXHXJXJXlXnX",
"(.zX9X8XiXMX'.%X1.v g b b 4.,.k.O.-.v } l <.1.D.b.z _ D P 4 u 1 8 c.,.H.V.B.$.+.W $.F.n.N.b.N.1.,.,.<.&.( - A x.mXJXSXKXSXJXlX>X",
"<XdX3XrXaXuXg.=.a.+.g g J n.4.' ,.4.} 4.[ 7.$.H.N.( B P I P y r D P.s.,.@.b.J.B.1.N.@.[ n.N.H.N.6.6.<.&.t.` :.z.;XKXKXJXvXJXlX{.",
"eXwXfXiXaX*X*Xx.C.v g b o.o.-.{ n.| } X.N.V.%.+.@.x t.9.h.S r 0 F A.&.>.6.b.%.%.O.k.,.<.n.J 1.1.| ' ,.3.t.`  .Z [.PXKXKXJXKXzX>X",
"eXdXdXtXMX:X=Xj.5.c d b b C.4.{ X.] C.X.F.+.+.$.B.O.u.0.h.0 0 B V ;.D.7.5.n.b.$.x A H.1.Z.4.6.W z x X.a._ 0.p.*.`.cXCXJXKXvXLXlX",
"wXVXtX9XMX:XOXa. .c + v v J -. .<.X.o.X.2.g ^ V.+.1.:.0.h.7 0 Z s J 1.O.6.H.#...A _ k.7.4.Z.6.O.1.O.1.k.e.) { 3.h.lXCXvXNXvXCXcX",
"4XdX9XdXuX=X%X=.c z d { ] v ' x Q ] v [ 1.$.$.$.[ N.c.u.`.B G ;.s n #.W | H.b.2.:.:.k.1.L x v / 7.@.1.:.0.9.{ z t.>XCXNXJXvXGXvX",
"iXdXdXVXrX&XP.x ; k x &.-.X. . .] g Q o.~ +./ B.+.7.G.u.`.S k I.n f C.1.&.a.6.1.=.i.>.5.4.D.+.%.O.@.1.k.e.8 x 4.=.&XLXJXKXSXGXvX",
"iXpX9XdXpX#Xa.c x = k y.-.} O.1.%.+.N.X.} $.B.v.b.,.i._ w.B f E.S.p -.3.&.C.L.=.d.d.d.:.k.] $.R.$.+.N.j.8.0.k.} i.u.CXHXJXvXGXvX",
"pXpX9XVXrX#XG.A ( ( A t.{ J 1.Q 7.Q ] <.1.] 2.v.b.X.3.=.w.F p v.S.m J ;.A ( u.9.G a B _ T.1.@...N.2.N.H.e.) :.n.:.` bXHXJXvXJXDX",
"iXrXpXpX'.g.3.c W C ` =.{ -.1.W $.2.b.-.z Q N.+.v ;.&.=.w.t.a p E.M.f X.5.:.D B * Y 4 P ) c.4.J H.#.2.5.9.0.*.J } C {.HXKXJXDXSX",
"rXpXnXiXOXOX1.W ( k =.F ' ,.! [ O.O.n.@.J 7.7.l b n.} &.U g.L p M.M.a ;.k.j.9.`.N N S P ) D t.4.b.#.$.7.e.P J o.X._ [.HXDXJXxXJX",
"tXtXnXiX'.#X%.Q ( Z =.} ! #.$...| | 7.%.+.$.>.O.#.b M.4.J A.E.f f S.*.*.} d.`.t.N N M 0 I D g.H.n.1.B.1.f.l._ @.&.=._.vXmXKXGXvX",
"tXtXAX8Xt.K.Q ~ A k *.| ~ $...! ( W 2.$.~ +.O.>.N.v.o.v.{ V.E.v.f ;.V M & F 0 4 M N M 9 q.8.j.6.6.#.V.N.0.8.| [ } F P mXKXbXvXKX",
"gXpXMXqX'.3.f c k A &.&.! ..b.%.$.#.m.m.b ^ 2.,.V.m.M.o.k C.E.E.S.K s 4 S r 1 !.t i 1 i R r 3.m.2.~ b 2.f.e.7.! ;.=.I lXPXKXKXvX",
"5XfXVX;XOX:...v A Z ,.-.<.m.[ Q p v | o.! m.N.#.V.V.m.o.; a.E.J.A.A.,XI  X!.w w !.Q.w w !.P &.#...b.v.n.u.) ( ..J F F >XGXJXxX<X",
"gX9XAX8X=X( c v A _ | ,.} n +.| O F *.:.@.#.@.! V.v.M.^ j D.E.H.+XuXZX0XxX.X^.w R ^.^.^.~.8.p.%.2.%.^ m.f.0.x Q J K P {.GXGXKXvX",
"tXgXVXOX#X=.] l C Z :.,.#.} Q { O 8.u.s.R.7.<.@.m.v.M.^ d.P.$XsX+XrXVXCXbX(.~.(.w ^.^.^.y e.G.2.+.l ^ N.u.f.&...J A t.h.mXKXKXSX",
"tXfXdX9X@XA v d Z =.3.-...g [ { $ 9.u.i.D.+.2.@.n.m.D.i.*X8XuXAX:X>XCXZXbX(.r.oXr t ^.^.y 0.A.6.2...^ F.0.0.{ Q ;.A =.I mXvXxXxX",
"yXfXtX@Xx.s.! d k ( *.| #.[ o.A @ 9.l.p.5.! B.#.n.1.s.i.{.ZXLXmXsX:XBXNX0X(.I ).0 R ^.Q.r h.A.X.X.2.^ F.t.P ( ' V ;.K S mXFXPXxX",
"pXVX6Xx.#XZ x [ ( W :.| +.v #.{ X t.=X*.( a.N.v <.-.g.=X:XLXCXZXrX=XVXZXXX_.)._.I I /.!.P t.C.o.@.B.N.C.f.e.>.L.A } F & ;XGXGXxX",
"pXfXgX2Xk.- x z ` ( >.O.+.^ ..l O t.rX_ A i.I.J.S.+XrXaX:XMXBX9XI.U.4X4XoX_.(.`.I !.(.I D L m.m.#.b.b.C.f.l.0.` =.F { & _.GXvXJX",
"aXVXrX4Xk.k x ; ` k O.+.+.! b c + _ fXf.`.,XA.-XsXsXMXaXI.T.T.R.R.7.].}._._.(.[.~.t ~.P F a.<.b.@.6.C.d.8.q.l.u._ _ J _ [.vXSXPX",
"VXAX*Xx.l._ V j ` ` %.%.X.! Q Q O u.fXP.rXsX:X+X:X:X=XOXG.F.L.W.W.L.3XwX>X_.(.[.!.e P P K G.D.H.D.1.| A P r r.0.D _ *.z.`.vXHXKX",
"nXAX}.].].j.Z & C ` O./ [ <.@.} * U -Xt.P.%XP.y.U.#X&X#X$X-XuXMX3X#XMXCXcX X(.!.~.y I t.K s.OX%XT.6.3._ e.(.E 8.8.` j.P.h.vXlXHX",
"CXZX*X].u.0.x & C Z >.Q X.b.o.J * S '.d.+X2X%X%XrXiXpXpX=XsXZXnXiX].MXLXvX_.(.t t y h.y.Z.d.#Xz.5.5.i.F r..X~.r.e.8.j.P.e.mXvXzX",
"LXZX*X|.* & C F 9.` 3.[ b.#.o.{ * S 8X{.wXVXyX#XiXnXmXnX&XuXMXnXrX=XLXPXvX(.~.w 1 5 P.J.T.T.$Xi.a.a.:.F E ~.(.R E 0.j.T.f.lXCXvX",
"LXmX].0.@ @ % % ) C 5.g ....o.;.% S AXeXzXZXBX&XnXmXnXnX:XuXmXmXrX`.).r 9 > 2 : o o OXU.I.E.1XZ.4.5.5.f.R R (.r.r.) U.U.9.0XNXPX",
"ZXnX*Xd.` D 3 : 8 ) Z.v %.#.^ #.F & MX&XZXPXCXeXCXnXpXqX{.).~.i 1 # . : > # o $ o 3 |.*X%XE.E.J.N.H.c d.).q y r.D x.R.T.u.eXCXcX",
"MXuX@XU.a.u.u , r ) 1.g ! v.#...Z.h A.G 5 w.I 9 9 5 B h.& o > o > 1 < $ < r I 0.f._.|.).z.1XE.B.F.H.z >.].8.0 P _ c.H.T.u.:XCXFX",
"qX4X#Xz.( 8.w , E 9.6.[ ..o.v.<.F.-.d.F   . . > o o % t.* * I 9.e.l.c.l.l.4X=Xx.h.|.9 < 3 t.s.I.D.N.k.j.'.D r ).u.Y.N.R.i.;XmXcX",
"8X8X@Xp.= E 6 2 y 9.1.~ g b m.n.a.*.s.F o 4 r 5 $ $ D A.a V h.g.j.Y.1XY.:.k.P.U.].{.# . q OXU.Y.C.6.#.k.f.D 8.9.u.Y.R.R.i.{.CXvX",
"9X2X#Xi.= P e 2 r 0.7./ g b o.J u._ F ` l.'.'.#XY M *.+XL N U &X%XL.H.H.j.U.T.U.f.*X< . % c.Y.L.D.J.6.5.x.0.P 8 :.R.R.T.z.&XCXSX",
"tX4Xc.0.= D 6 2 E 8.>.+...b 4.s.7   O D d.d.k.%XH N L I.T a U =XOXZ.J.G.G.G.L.L.s.'.$   8 j.k.5.a.4.6.:.g.x.q * =.H.V.J.K.&XmXcX",
"tX3X@X:.= D 9 6 y 8.p.O.N.b J s.< .   = u.K.L.T.Y Y S.I.S.H L K.$X$XT.K.z.K.P.%X#X'.$ # D j.i.-.4.} H.L.x.u.8.7 _ j.N.F.K.OXmXxX",
"3X3X#X=.k ) 9 $ 9 D _ d 4.C.n.P.<   O l.#Xs.L.I.Y L -XI.S.H Z.-X-X$XR.L.L.U.P.$XK.].9 , B A.K.J.I.;.} d.#X_ D % ` H.F.D.A.`.mXxX",
"8X3X1X_ ; u.@ < < @ Z 3.{ @.b.d.5 . $ u.g.y.K.+XY S.A.y.S.H H J.U.1XW.W.>.k.:.#Xd.'.i > U g.g.+XI.3.K i.P.C 7 7 A Z.F.J.$Xh.mXxX",
"tX4X@X>.k ( * % 3 q V d.&.| ! i.S > < f.z.A.OXs.N U A.g.E.H L ;.T.1X>.>.5.Y.c.U.P.`.9 > f.g.P.Z.Z.i.3.s.f.D 9.G t.K.Z.J.+Xg.vXcX",
"rX3X2X(  .| s 7 7 e.g.g.*.| v.$Xu > q &Xx.s.I.;.s Y *.i.-XL N y.P.&.G.O.W.7XU.1XU.z.9 2 f.L.U.s.i.y.*.d.OXF F 9.i.A.I.S.-Xh.cXGX",
"yXz.l.p.] l h V D D d.*.{ | J.d.> : 9 '.d.i.n.n a L t.+X-XT V y.OXG.R.T.G.U.1X1XY.x.2 , x.Y.U.L.s.i.t.=.OX_ 9.g.t.A.I.J.T.h.lXGX",
"yX@XP.=.| g p h u._ =.J H.4.<.z.6 . 6 8.F I.S.L a S.S.,XA.y.H A.P.R.R.W.k.%XyX7X$XOX2 , ].%XOXP.&.&.i.*.d.D 9.t.t.y.I.J.T.g.lXvX",
"rX_ l.=.| p p j t.D i.6. .1.n.z., . E e.d.I.S.n a S.A.s.+XK a A.+XL.1XY.1X%X1XT.P.#Xe > #XG.z.P.4.3.a.t.x.` F 9.U *.S.I.I.g.lXvX",
"tX#X2X=.J p p m *.F 4.X.| D.-.d.9   q ) u.3.m.L H y.P.$X-XH Y L +X'.p.1X%XOXY.c.I.OXe 2 #X5.K.K.D.3.&.A z.C B h.U K 4.I.U.k.0XJX",
"6XP.2Xu.f p p j 3.A | g 1.6.J d.<   8 Z u.d.Z.j a I.Z.3.I.L a T OXg.1X1XA.g.f.g.%X,X1 1 OXL.I.s.-.&.j.:.z.C F F t.K L F.T.g.{.NX"
};
