/* XPM */
static char *e0ca386f59cf4522867321a4e8d9474epfDt8UbXZfPm2I7G[] = {
/* columns rows colors chars-per-pixel */
"64 64 256 2 ",
"   c #09090A",
".  c #141313",
"X  c #291712",
"o  c #383A15",
"O  c #2B2C18",
"+  c #393A27",
"@  c #373834",
"#  c #2A332A",
"$  c #1E1E21",
"%  c #43321A",
"&  c #47392B",
"*  c #4B3C35",
"=  c #553A28",
"-  c #703B26",
";  c #5C291A",
":  c #37422A",
">  c #3A4738",
",  c #2F4D2B",
"<  c #3E461A",
"1  c #484727",
"2  c #564729",
"3  c #4B5429",
"4  c #59552B",
"5  c #4A4737",
"6  c #574836",
"7  c #595938",
"8  c #674729",
"9  c #7B592C",
"0  c #684A36",
"q  c #685738",
"w  c #745B3B",
"e  c #795838",
"r  c #714C2F",
"t  c #596537",
"y  c #4C6734",
"u  c #65653B",
"i  c #77623A",
"p  c #716935",
"a  c #5D4E1F",
"s  c #293C45",
"d  c #0E3B46",
"f  c #433A43",
"g  c #384747",
"h  c #264649",
"j  c #1C454D",
"k  c #495448",
"l  c #585646",
"z  c #4D5C53",
"x  c #57524C",
"c  c #675846",
"v  c #775C45",
"b  c #6B5A4F",
"n  c #566659",
"m  c #59684B",
"M  c #6A6646",
"N  c #746443",
"B  c #7C6444",
"V  c #7B6B45",
"C  c #7C6D4A",
"Z  c #776849",
"A  c #7B744A",
"S  c #686555",
"D  c #7D6C53",
"F  c #7D6C5B",
"G  c #766655",
"H  c #7A745A",
"J  c #69774E",
"K  c #5A6965",
"L  c #4F637B",
"P  c #656967",
"I  c #797565",
"U  c #7A7575",
"Y  c #706F68",
"T  c #565D73",
"R  c #8B3B2A",
"E  c #845B3B",
"W  c #894F31",
"Q  c #85642D",
"!  c #856334",
"~  c #88673A",
"^  c #95733A",
"/  c #926A3B",
"(  c #865D42",
")  c #925D44",
"_  c #856344",
"`  c #8A6445",
"'  c #8C6B43",
"]  c #856549",
"[  c #8B6649",
"{  c #846C4B",
"}  c #8C6B4C",
"|  c #836C43",
" . c #926B4C",
".. c #956748",
"X. c #83724D",
"o. c #8B734A",
"O. c #987747",
"+. c #846C54",
"@. c #866D58",
"#. c #936E51",
"$. c #916A58",
"%. c #857552",
"&. c #8C7352",
"*. c #8A7A55",
"=. c #84735B",
"-. c #8A765C",
";. c #8C7C5B",
":. c #857A56",
">. c #947354",
",. c #9B7454",
"<. c #9C7659",
"1. c #947B5B",
"2. c #9C7B5C",
"3. c #967956",
"4. c #A27C5C",
"5. c #A37A56",
"6. c #A6774F",
"7. c #857363",
"8. c #8B7665",
"9. c #8C7B63",
"0. c #8A7769",
"q. c #8D7B6B",
"w. c #857A67",
"e. c #9C7D62",
"r. c #917E6C",
"t. c #947A66",
"y. c #887A72",
"u. c #927E71",
"i. c #846F64",
"p. c #A37D61",
"a. c #A67B6F",
"s. c #71846B",
"d. c #71835A",
"f. c #8A815C",
"g. c #93825C",
"h. c #9B845A",
"j. c #A3834C",
"k. c #A58354",
"l. c #A68657",
"z. c #B38D5F",
"x. c #898469",
"c. c #958463",
"v. c #9C8463",
"b. c #9B8A65",
"n. c #93826B",
"m. c #9D8C6A",
"M. c #98876B",
"N. c #9E916C",
"B. c #9E9166",
"V. c #8B8575",
"C. c #948273",
"Z. c #9A8574",
"A. c #9C8B73",
"S. c #9C8B7B",
"D. c #978977",
"F. c #989379",
"G. c #A48364",
"H. c #A98465",
"J. c #A28A65",
"K. c #A4856B",
"L. c #A48C6B",
"P. c #AA8B6C",
"I. c #AB8769",
"U. c #A3926D",
"Y. c #A9926E",
"T. c #A7966B",
"R. c #A28D7C",
"E. c #A78B74",
"W. c #A49472",
"Q. c #AB9473",
"!. c #A79974",
"~. c #AA9A75",
"^. c #A5937B",
"/. c #AD9D7A",
"(. c #AA957B",
"). c #B19C7B",
"_. c #B19875",
"`. c #B18D70",
"'. c #AEA07C",
"]. c #B2A17D",
"[. c #BAA67F",
"{. c #717A84",
"}. c #4F6086",
"|. c #8F7F8A",
" X c #788989",
".X c #8B8787",
"XX c #978B85",
"oX c #9C9587",
"OX c #978C94",
"+X c #9A9698",
"@X c #889091",
"#X c #A59283",
"$X c #AD9B82",
"%X c #AD9B8B",
"&X c #A69888",
"*X c #B29D85",
"=X c #B19D8D",
"-X c #B19782",
";X c #AA9D92",
":X c #A49B99",
">X c #B29F90",
",X c #A38E89",
"<X c #9EA190",
"1X c #AEA38A",
"2X c #B4A483",
"3X c #B4A28C",
"4X c #BAA888",
"5X c #A8A499",
"6X c #B5A293",
"7X c #B9A595",
"8X c #BAA995",
"9X c #BAA698",
"0X c #BCAA9A",
"qX c #B3A79A",
"wX c #B4B49C",
"eX c #979BA5",
"rX c #999BAF",
"tX c #A59DA7",
"yX c #A49DB4",
"uX c #99A6AC",
"iX c #9BA8BA",
"pX c #97ADB8",
"aX c #A8A6A9",
"sX c #B3ACA8",
"dX c #A6A7B9",
"fX c #B2ABB8",
"gX c #AAB3B9",
"hX c #B4B6BA",
"jX c #BAB4A7",
"kX c #C0AC9C",
"lX c #C3B3A1",
"zX c #B3C1BF",
"xX c #9CACC9",
"cX c #9EB0CF",
"vX c #A7ABC5",
"bX c #A3B4CC",
"nX c #AAB6C7",
"mX c #B5B8C6",
"MX c #A4B5DB",
"NX c #ABBBDC",
"BX c #A7B7D5",
"VX c #B3BDD7",
"CX c #ABAECB",
"ZX c #AABDE4",
"AX c #AAB9E4",
"SX c #AFBEE8",
"DX c #ADC2D8",
"FX c #B4C4D8",
"GX c #B2C3CB",
"HX c #AEC2E8",
"JX c #B6C8E8",
"KX c #BCCEF3",
"LX c #B4C8F2",
"PX c #BDD2F7",
"IX c #B9D1EE",
"UX c #C3D5F8",
/* pixels */
"#  ...q + e ` r _ 6 # q :.C E r Q O.{ :.6 g p.I.i 0 v v i w q e c r e q e q w 0 r v v q 4 0 7 e w q q r q w c 7 w c M C b D $X%X",
"X +.o.8 o 6 O._ ~ _ # 7 h.1.v 9 Q j.J.2.+.g 1.I.~ [ ` [ ..` ) ~ ..../ ~ ) / / ~ ~ ! ` E ` ' [  .[ [ ..( ( ` [ ( } $.} %.*.1.$X=X",
"$ +.#.r o 2 O.O.O.` # 7 h.1.e e 9 j.h.I.+., -.P.~ ( ] } ~ ! ] ! _ ! ~ ~ ! ~ ` ! e ! e e ~ ~ [ O.>.[ [ ` v ( [ [ } >.3.:.X.=.$X;X",
"* +. .8 1 2 .. .p.` O N 4.3.w - 9 j.J.Y.B : 9.v.] { { #.#.#.} &.} >.H / } [ [ [ { ] { { C X.{ #.{ ` [ ] ( B B } { { &.g.;.@.#X>X",
"6 $. .E 8 6 ,.3.c.{ O q 4.O.| r 9 k.Y.T.M g ;.p.} %.>.X.&.&.&.%.1.1.%.~ N ` ] } C { o.C 1.;.1.>.%.[ C [ E } { #.} C &.:.c.S.%X=X",
"6 +.4.[ 8 0 <.9.f.A.K M 3.2.| 3 8 4.L.Y.@XY 1.Y.1.C >.V { { } %.X.1.%.&.N } { } { { >.B >.%.>.%.X.&.B ] e  .;.2.[ X.&.%.;.;X%X=X",
"U e ' ` r e 1.xXM.:XMXM.4 C #.y i ^.aXG.mXmXJ.W.c.{ >.%.X.X.&.3.&.1.*.*.V #.C ] } |  .[ 1.*.3.>.3.>.A &.( ` t.e. . .<.3.t.=X%X=X",
"yX9 E ` 9 ( 3.cXeX:XZXC.4 q &.u N 6XLX,XmXVXL.W.c.V #.} X.X.X.%.} &.{ X.{ &.[ ]  . .| [  .#.#.,. .[ &...} ( t.1._  . .>.1.>X>X>X",
"iX' 9 _ 9 [ 2.yXgX+XZXF.M 2 i u N L.NXtXvXmXL.W.L.] q e w M M ( ( q 7 i v l E E q 7 v w c v E v c w e B ` ) { A i _ c B $.;X=X=X",
"dX1.E 9 ! [ h.XXNXvXHXD.V 2 q y B l.dXCXCXVXQ.Y.4.&.i [ X.] v ..&.b B C B v ` ) c c C B 7 D ) G v 6 e l v W w V V Z G G 2.=X=X7X",
"uXZ.! Q 9 ' v.S.DXSXZXF.*.4 4 u C m.:XLXHXmXm.u N [ O.3.4.5.,.h.f.3.t.2.,.<.4.p.g.2.v.g.b.m.L.P.<.#.>.,.,.#.#.>.<.<.<.p.E.6X7X6X",
"eXK.! Q Q ^ h.,XHXHXBXm.h.4 t 4 B l.#XSXHXyXL.f.z } M m q c M M w m M A #.} } { u A &.&.A Z A C G Z Z F C V v B { { +.+.v.=X6X7X",
"OXy.q.q.i.y.u.OXvXcXvXt.H S G H 7.C.+XyXeXOXZ.m.G N &.4.3.o.O.*.2.J.J.1.2.2.2.c.1.v.K.G.v.v.v.h.h.h.>.&.&.&.c.N.g.*.9.=.g.q.#X0X",
"ZXAXvXvXMXMXHXHXAXSXSXZXZXFXNXJXLXHXLXSXZXJXaXh.#.[ v.r.t.D 4 4 q R.(.L.m.m.h.c.~.].'.'.[.4X7X*X~.b.3.{ g.L.'.2X~./.].q.9.K XX0X",
"rXOXOX|..XOXeXtXeXtXtXOXOX:X:X+XOXOX:XOXXXXXt.I.>...1.c S 2 5 k v #.} r 2 u u J A././.$X4Xb.-XmX1XU.*.%.;.'.!.!.'.$X2Xg.c.Y 7X7X",
"t.&.B } o.{ <.3.3.3.2.g.1.1.M.M.b.h.v.m.R.U.L.p.<.#.g.H F 2 s g c ] e 2 4 J J M.3X~./.2X4Xh.^.mX=XY.*.*.;.'.!.!.~.$X%Xc.t.e.=X7X",
"F @.C q C %.*.7.g.c.:.:.*.*.Z M.m.m.=.M.U.m.;.>.2.&.J.2XY.q : S q q q q N D c.(././.~.].~.o.fXfX5.G.%.c.c.'.c.V X.(.7X7.u.2.*X9X",
"i.7.*.q *.D C n.F 9.=.%.7.0.F 9.9.-.r.#XC.#XM.$.7.G m./.3.8 z &XT.T.b.Y.~.m.~.$X6X2X~./.*.+XIXtXe 1.g.c.M.8X;.V.V.].9X8.u.p.-X9X",
"7.q.+.;.c.;.8.G 7.r.7.M.D i.w.q.q.=.0.n.W.#Xc.8.K C J.~.~ 6 n A.4X8X4XF.c.x.c.D.XX*X].b.V.IXKXOX1.!.g.b.D.2XH +X5X2X7Xn.m.E.$X9X",
"i.r.=.%.=.8.c.q.i.Z.7.q.c.C.{ S.7.:.q.c.m.M.;.q.K } L.].! 7 y.Q.3XqX^.F 0.oXZ.XX@ ^.).X.nXIXKXV.N.!.g.c.A.].x.@X+X7X6Xe.p.K.%X9X",
"u.M.%.%.%.%.*.q.i.D.i.;.1.9.%.r.#Xu.L.b.%Xu.&.q.K >.L.!.p 6 x.<.b.oXW.;.=.-.q.n.I 6XM.n.FXUXJX1.!.!.9.;.b.A.9.:XtX6X7Xe.Z.V.-XqX",
"0.Z.C i C =.q.9.u.7.7.A.q.Z.c.S.#XD.n.M.R.C.I.7.K 1.Y.U.u 7 F.3.^.jX8X/.n.A.A.S.#X3Xb.XXJXKXVX1.!.U.-.C.n.=.b U V.7X7X8.r.u.R.=X",
"u.q.X.C =.7.q.q.q.8.7.u.F D -.u.7.i.G r.Z.C.K.q.K @.Q.c.u J 5X8XqXwXqX3X9.0.Z.q.i.$X~.5XJXLXnX%.~.W.m.D.E.%.c c M D.7Xt.8.y.E.3X",
"q.H X.:.;.C.9.8.S.u.G 8.7.9.r.q.r.u.q.D.S.S.t.y.n +.!.n.7 Z C.C.A.#XV.#XM.7.0.Z.u.3X).d.uXUXaX*.'.~.~.^./.q Z S S q.7Xe.h.y.E.=X",
"S.9.%.C -.r.q.7.S.9.=.A.0.M.9.G S.S.0.n.R.D.e.I n 1.E.x.u *.9.q.C.D.D.#Xc.0.0.q.q.b.W.2 k @XoXT.].~.2X6XL.( e [ K I 7Xe.g.{.(.-X",
"R.M.X.C :.D @.7.9.=.g.8.7.F =.F C.8.q.b.u.D.K.I n l.W.x.M g.c.D.D.S.u.S.M.F ,X#X@.%.c.J 7 s.qX!.*.2X$X8X!.,.H.t.L K %XK.c.{.#X_.",
"^.c.X.V V h.g.m.;.9.;.7.0.7.;.7.q.b.M.M.#Xu.K.F n h.Q.V.J h.b.A.#X#XS.-X7.G Z.9Xc.A.*.M u s.wX^.C /.[ Y.).1.3.0.}.K $XD.0.U E.K.",
"%XA.*.*.*.-.m.L.W.U.U.U.#X^.n.u.R.Z.#XC.S.S.e.U K %.W.m.I W.b.Z.S.#X,X&X1.M.C.7XW.C :.l d.p T.T.3.v.h.5.2XL.( 8.L L &XD.9.U a.R.",
"=X^.b.*.$   + E.U.U.U.!.3X$X!.=X#Xi.#Xn.#XD.K.I n G Q.U.c.U.1.n.u.D.S.$X;.;.A.$X3XM.q v V A i V.#X,.I.>.Q.2.N S m S #XE.e.I ;X0X",
"&XR.L.&       ;.~.N.m.N.N.w.m.%X#XC.S.c.%X0.e.I n ;.Y./.~.!.:.n.q.0.u.m.%.%.9././.sXP H {  .i iXFX..`.` ..Q.&.l S G.S.E.2.I qXkX",
"%XR.g..   . ; &.!.N.U.m.> @ c F.#X%X7.g.0.M.P.I n >.L././.!.W.!.%X%XS.W.m.m.(.!.W.pX X.X+.B I NXIXM.h.c.[ I.4.S H x..X^.n.U 5XwX",
"&X(.{     X - ` !.N.~.M d K S U &XC.F t.Z./.2.c n | L.~.~.~.~.3X>X0X9X].~.~.'.*X;XJXJX+XuX@XeXJXIXaX,./.2.G.G.w.c.Y XXS.t.U 5XlX",
"=X(.@.  . X R [ !.!.m.h j L dX+X&XZ.u.W.3X4X_.S S } Y.]./././.9XkX0X9X/././.'.*X;XJXUXuXFXUXgXJXIXzXh._.#.G.G.Z.^.F &XD.t.U qXlX",
"-XQ.-.    X - &.~.].D j j @ eX5X*X=X=X*X8X8X[.H n v _.C b D ;.F C.oX9X'.~./.].~.5XFXKXnXs.eX+XPXFXGXG.,.H.4.I.$XsXM.$XN.h.U 5X0X",
"%X#Xe.+ $ % >.U.U.T.k s s g c I (././.E.I.P.[.Y S v _.c 2 D &.0 5 H 4X]./././.(.aXJXKXhXH .Xd.JXJXFX^.g.G.L.Y.hXhX6X8XE.n.I &X9X",
"(.uXvXu.# % C M.N.b.q e x @ 2 5 | P._.k.{ c.4XP S ,.Q.V r v &.v b %.8X2X~./.~.%XSXIXPX+XN .Xp nXUXJX7XJ.v.G.L.hXsX6XkXE.M.I %X8X",
";XDXCXaXI c OXuXm.g.i ^ l 5 x k ^ O.,.k.~.4X[.S S 4._.5.~ m.:.4 q.XX8X$X~.~.~.3XnXhXsX&XfXnXtX5XGXIX;X) e.J.G.wX5X7X0XD.x.7.;X9X",
"DXHXvXdXdXtXgXvXA.1.3 9 E Q 8 M ^ O.J.~.4X].].S b 6._.P.6.hXF.t sXjX7X%X'.'./.3X&X%X7X7XFXUXVX-Xm.%X`.4.~.Q.*XmXfX6X9X!.Z.F <X0X",
"JXNXAXdXvXAXnXvXoXh.k * i Q ^ ^ ! 1.2X*X2X3X[.n S >._.P.k.jXF.V sXqX7X6X].]./.$X$X2X2X6XGXJXnX7X4X).3X2X2XY.qXmXhX=X9XW.E.H <XwX",
"VXVXLXdXvXMXvXbX5Xm.} w q 0 q ] _ g.].$X2X4X_.n k v ).P.l.sXB.V 5XsX7X3X'./.~.~.~.'.4X3XGXJXmX7XW./.7X2X2XT.aXmXnX6X7X!.K.H oX0X",
"SXVXVXyXvXCXxXvXuXm.U.:.o < < p O.k.].~.].'.].n m _ Q.I.P.sX^.X.3XsX7X6X2X~.~.~.W.].4X6XFXKXUX=X5.h.[.2X4XL.aXGXGXqX9XW.n.H oXkX",
":XtXvXdXvXdXdXdXuXm.m.g.3 1 < p ^ h./.~.]./.).z l E W.I.I.sXF.X.7X5X].].'././.!.!./.1XaXKXKXJX).O.h.'.2X].G.fXDXbX5X0XA.9.H F.kX",
"R a.,XdXdXdXnXnXnXW.N.b.< o o X.O.l.!.~.'.~._.z l ] Q.4.p.yXG V aXwX].$X].'././.-X:XvXVXPXKXIX2Xj.k.).].Q.I.hXGXnX;X9XW.c.H oXkX",
"R P.m.+XyXdXiXyXpXA.m.m.< o < h.O.l.~.'.~.'.].z l $.H.u.XX@XY .XOX<X6X7X).W.R.aXVXHXUXUXDXFXIX(.O.k.).'.Q.E.hXmXfX6X9XL.*.F XXkX",
"R J.,XdXtX+XV.W A.D.c.b.w % % n.O.l.'.~.'.'._.z l 7 G.s.cX X XpXbX XoX9X~.$XmXPXPXJXJXIXFXKXNXl.j.k.Q.'.Q.E.mXnXfX=X9XW.o.=.XX8X",
"W J.:XdXaXyXD.- 2.v.b.h.~ _ = b.O.j.'.'.'.~._.k l ] `.X. XcXs.xXeXs.0X6X'.6XVXHXVXFXVXVXnXCXXXk.6.l.~.'.Q.E.GXmXdX6X9XW.;.I XXkX",
"W K.OXyXvXtXc.8 #.M.h.2._ _ E m.h.O.!.~.~.~.'.k l ..U.g.d.xXs.cXI *X9X%X~.;XNX5X3.p.I.4.4.2.G.G.>.5._./.L.E.fXmXfX6X9XA.7.H V.0X",
"( Q.:XdXyXtXv.W ` m.v.2. .#.>.m.h.3.'.~.'.'.'.k c 6.P.'.d. Xs. Xd.kX7X%X/.qXJXtX..6 x l 5 k k > i k.Q./.W.p.sXmXfX6X9XW.2.H C.4X",
") W.yXCXiXnX#Xe E 4.G.h.#.#.3.m.h.j.T.'.~.!.~.k k  .I.3.&.J d.J m.2X1X/.~.5XHX:X[ + , : : & 6 * 9 k._.W.Y.5.5XnXaX7X0XW.2.=.w.4X",
") ^.iXMXiXbX5X` W H.J.2.<.<.v.A.L.O.h.~.W.~.'.g 5 c B o 3 u J d.H 3 A ).T.5XLX;X[ & & 5 6 * 2 * e j.Q.N.E.2.oXhXqX3X9XW.p.=.y.4X",
"W m.xXxXyXdXgX1.r a.k.3.2.,.Z.#XT.;.m.!.U./.!.g k ( 4 < 1 4 y f.t 3 y ~.Y.sXPXtX' + + + & : 5 * i 5._.N.W.5.%XgX:X6X9XA.9.7.y.2X",
"- t.pXdXyXiXbXM.- ..l.>.<. .Z.;XT.h.! b.!./.Y.h 7 ` 1 3 3 u p C y y u W.(.sXKX:X..5 6 = 2 6 - 6 i ,.(.W.Q.4.;XfX:X6X8XW.g.F I 2X",
") $.bXyXrXvXbX5XW r h.>.<.#.R.aXU.J.9 *.!.W.L.j 5 E q 1 : V m.%.y t A ).W.sXUX:X..+ : @ 5 : 2 2 q l.~.~.W.4.;XhX:X7X6XW.h.F I *X",
"h.u.MXrXiXcXAXaX..8 / ,.2.5.&XgXU.!.:.C T.U.L.> 6 ` v.4 o %.*.b.3 4 &X2X~.aXUXqX#.= 3 5 2 2 * * w P.!.'.Q.5.=XmX5X9X9X^.} F Y ).",
"_.#XvXdXeXyXvX&X4.e  .2.<.6.fXmXm.T.g.q N.N.J.h 5 v I.G.g.V c.;.C M.8X'.T.fXPX%X) + & @ & M ' ~  .P.!.~.!.5.:XhX#X6X6XW.%.G S ).",
"W.&XvXrX+XvXBX:X,.5.,.e.E.5XLXBXU.U.N.%.L.!.N.# > e I.I.].:.%.;.].4XqX2X!.fXIX&X( + 1 5 & e j.l.4.G.Q.(.Q.5.;XmX%X6X6XE.;.G S ).",
"!.&XnXbXHXNXHXdX<.j.o.9.aXMXHXgXU.W.L.m.G.B.m.@ l ( l.I.!.W.N g.'./.%X/.T.sXJX!.e & 5 2 = 9 z.j.<.I.Q.~.`.6.5XhX5X%X3XE.+.G b /.",
"!.:XvXMXZXbXBXNXm.m.O.Q ~ A.{ $.m.T.U.m.j.B.J.h c ..G.L.U./.V %.'.(.'.!.-XnXFX(.v + 1 + : i j.l.<.G.P.W.`.,.aXmX+X$X).L.-.D S /.",
"W.:XbXNXNXbXBXNXF.c.' ~ ^ B.~ ! v.W.U.U.h.B.U.+ = ..L.U.!.].X.%.2X2X6X1XgXDXFXW.B 1 1 & = ~ l.l.3.4.Y.P.P.5.fXDX5X$X).K.4.+.b /.",
"~.aXNXNXNXBXBXAXoXb.~ ^ h.W.| Q G.~.W.U.N.N.m.0 = ( Y.W.~.].*.%.3X*XqXdXBXJXnXY.v : > * & i j.l.#.4.T.P.H.3.gXDX5X(./.G.#.e.G (.",
"/.iXMXxXAXMXBXSXtX1.~ / 2.N.o.W h.!.N.N.K.N.m.[ 0 0 `.W.W.'.c.%.>X=X>XVXJXJXhX).[ & 6 q 5 ] z.H.,.a.E.N.H.3.+XiX&X/.!.G.<.p.>.U.",
"W.dXMXcXMXNXMXMXiX3.i ^ 1.b.^ Q O.W.m.G.G.N.m.] v v I.L.W.'.g.V E.@ @ s f f f 5 * $ O $ O * - 0 = - G L.H.} ] +.M.(.U.G.@.H.&.N.",
"!.vXMXcXMXMXBXMXbX>.! ^ c.m.o.Q O.W.m.v.2.b.U.] e w P.W.W.~.W.N g.k x k K n z z K {.U T Y P n P k x 6 K.G.} ..[ v.W.U.G.D G.M.Y.",
"%XxXAXxXcXNXcXMXbXt.! ^ b.b.3.! O.W.U.N.N.U.!.#.e B L.L.L.W.*X%.q x P m Y H Y U T {.{.U U {.U U P P x J.p.[ }  .G.W.W.G.X.1.t.!."
};
