/* XPM */
static char *_6f31b6bbcc548efb1f01e5c72c449ee9VpcdTDkG75HO9m9[] = {
/* columns rows colors chars-per-pixel */
"64 64 231 2 ",
"   c #2C1D13",
".  c #251911",
"X  c #2B1108",
"o  c #2E2015",
"O  c #342315",
"+  c #3A2214",
"@  c #3C2C1D",
"#  c #392819",
"$  c #3E301C",
"%  c #3E3322",
"&  c #3E3928",
"*  c #3E2F20",
"=  c #412A15",
"-  c #442D1A",
";  c #492C18",
":  c #432714",
">  c #4C3116",
",  c #44321D",
"<  c #4A331D",
"1  c #4D3A1E",
"2  c #543B1C",
"3  c #57381B",
"4  c #512B0B",
"5  c #433522",
"6  c #4A3622",
"7  c #463925",
"8  c #4B3C25",
"9  c #4B3E29",
"0  c #443C29",
"q  c #533C24",
"w  c #513F29",
"e  c #5A3C21",
"r  c #66471D",
"t  c #4F4127",
"y  c #4E422B",
"u  c #47412C",
"i  c #554124",
"p  c #5B4424",
"a  c #52442C",
"s  c #5A442A",
"d  c #55482E",
"f  c #5B4C2D",
"g  c #4E4831",
"h  c #554B32",
"j  c #5A4D32",
"k  c #524730",
"l  c #5C5235",
"z  c #5D5439",
"x  c #5D5839",
"c  c #614423",
"v  c #624925",
"b  c #634B2B",
"n  c #6A4D2C",
"m  c #674928",
"M  c #774C29",
"N  c #6C532D",
"B  c #69542A",
"V  c #73542D",
"C  c #755A2A",
"Z  c #614E31",
"A  c #684E31",
"S  c #635435",
"D  c #6B5533",
"F  c #655836",
"G  c #6C5B36",
"H  c #615739",
"J  c #645B3C",
"K  c #6B5C3B",
"L  c #685738",
"P  c #735B35",
"I  c #725C39",
"U  c #795A34",
"Y  c #6C613E",
"T  c #756335",
"R  c #73633D",
"E  c #7B643C",
"W  c #7C6A3D",
"Q  c #796437",
"!  c #76622E",
"~  c #5B5D40",
"^  c #645E40",
"/  c #685F42",
"(  c #5D6748",
")  c #656142",
"_  c #6C6442",
"`  c #6E6845",
"'  c #6C6D4A",
"]  c #736542",
"[  c #7A6742",
"{  c #746A44",
"}  c #7B6C45",
"|  c #746D49",
" . c #7A6E49",
".. c #70664C",
"X. c #7D7045",
"o. c #76714C",
"O. c #7C734C",
"+. c #7E7951",
"@. c #797752",
"#. c #845B2B",
"$. c #825C34",
"%. c #845F3A",
"&. c #836433",
"*. c #8A6535",
"=. c #836A3E",
"-. c #8B6A3E",
";. c #88673A",
":. c #936B3B",
">. c #94683A",
",. c #8B723E",
"<. c #98713C",
"1. c #A0743E",
"2. c #836C43",
"3. c #8B6D43",
"4. c #826E4A",
"5. c #876944",
"6. c #847246",
"7. c #8C7345",
"8. c #83744B",
"9. c #8B754A",
"0. c #85794E",
"q. c #8B794D",
"w. c #927344",
"e. c #9C7343",
"r. c #94754A",
"t. c #9B764B",
"y. c #947B4D",
"u. c #9C7C4D",
"i. c #977846",
"p. c #847551",
"a. c #847B53",
"s. c #8B7D53",
"d. c #8B7E59",
"f. c #857A57",
"g. c #947D52",
"h. c #9A7D53",
"j. c #907E58",
"k. c #987C58",
"l. c #9C6F42",
"z. c #A27847",
"x. c #A57D52",
"c. c #9C814E",
"v. c #94804D",
"b. c #868157",
"n. c #8C8155",
"m. c #8E825A",
"M. c #878358",
"N. c #948354",
"B. c #9B8355",
"V. c #9B8857",
"C. c #94845B",
"Z. c #9B855A",
"A. c #94895D",
"S. c #9D8A5C",
"D. c #AD8544",
"F. c #A1814E",
"G. c #AA834B",
"H. c #AB8849",
"J. c #B38B4C",
"K. c #A38454",
"L. c #A98254",
"P. c #A3855A",
"I. c #AB855B",
"U. c #A38C5D",
"Y. c #AB8C5D",
"T. c #A68A56",
"R. c #B38D52",
"E. c #B28C5E",
"W. c #A4915E",
"Q. c #AB955A",
"!. c #B59456",
"~. c #B2935C",
"^. c #B8975B",
"/. c #BA934C",
"(. c #878361",
"). c #948660",
"_. c #978B63",
"`. c #9C8C63",
"'. c #9D8863",
"]. c #9E926A",
"[. c #9E9464",
"{. c #A38D62",
"}. c #AB8E62",
"|. c #A88B67",
" X c #B28D63",
".X c #A59263",
"XX c #AB9365",
"oX c #A4946A",
"OX c #AB966A",
"+X c #A6986C",
"@X c #AD996C",
"#X c #AD9961",
"$X c #B29465",
"%X c #B29965",
"&X c #B99C63",
"*X c #B3956B",
"=X c #B39B6C",
"-X c #BA9A6D",
";X c #AD9B72",
":X c #A99A74",
">X c #B39E72",
",X c #BA9D72",
"<X c #B59F79",
"1X c #BCA16E",
"2X c #AFA178",
"3X c #B5A175",
"4X c #BBA375",
"5X c #B6A37A",
"6X c #BBA57A",
"7X c #BEA97C",
"8X c #C1A57B",
"9X c #C2AB7D",
"0X c #C3A977",
"qX c #C7B07F",
"wX c #BEAB83",
"eX c #BAA580",
"rX c #C3AD82",
"tX c #C6AF87",
"yX c #C6B185",
"uX c #CAB384",
"iX c #C6B28A",
"pX c #CBB58B",
"aX c #CEB88F",
"sX c #D1BA8E",
"dX c #CAB691",
"fX c #CEB991",
"gX c #D2BC94",
"hX c #D3BE99",
"jX c #D5C19C",
"kX c #D9C5A3",
"lX c #D9C5A5",
/* pixels */
").7.r.f.f.r.B.).0.{.$.h.2.q.;.$.[ W n.M 5.G 8.q.^ p.C.4.N.C.C E C.[ m.8.O.a.a.G D O._ _ 6 l w q s J J a < 9 s t , = $ 8 5 O   # ",
"oXw.r.9.g.>.x.C.r.{.M h.3.q.U %.7.3.s.M E &.2.k.k.d.m. .C.+XM 9.A.s.s.8.m.s.X.K I | / _ e S w q ; @ j j #   9 a <   . 9 5 # . o ",
"oXh.'.u.XXt.}.U.U.OX%.|.B.P.3.3.c.7.g.%.8.$.7.C.N.j.C.4.C.`.5.3.A.A.n.f.A.s.]  . .I | / f L Z s e O j H ; + 9 a 8 +   6 9 - X . ",
":X{.oXG.@Xx.OX$X$X>X;.@XP.{.k.k.y.7.s.*.g.M 5.{.Z.C..Xp.C.'.5.[ q.n.s.8.n.p.K ] O.Z H ) j Z s a e @ a l < - w 9 y =   7 7 5 O o ",
"eXk.@Xg.<XK.=X[.oXrX-.=XC.f.T.B.s.| p.7.} [ 5.5.C.d.).d.(.oXd.q.q.d.m.f.n.a.8.a.a. .| O.` _ _ _ ) ) ^ ~ l j j h h a 8 a 9 7 9 7 ",
":Xx.XX(.].$X$X:X_.6XXX.X;X+X1XXXeX:XoX@X;X:X3X2X+XOX].+XoX].`.C.m.n.a.O.O.o.` ` ` ] ` ` | ` ) x z h h y 0 0 w 0 u 9 5 $ 5 % % 5 ",
";XtX7XtXwXiXdXwXwXwX5X<X5X>X+X:X'._._._.oX{.'.C.`._.`.).d.d.s.m.C.d.z H H / l H l f S _ o.o.+.@.k 9 h a a h 6 9 j h 7 9 7 7 , , ",
"oX5X5X:X2XoXOXoXB.oXC._.'.Z.C.g.g.f.f.S.{.B.s.9.oXC.@X+X_.`.{.+X+XA.{  .K ] H S l H J { O.o.+.+.h a j j a h a h j h y w a y y 8 ",
"tXtX8XrXiXOXOX=X@X@X'.OXOX|.h.h.|.C.m.{.|.S.[.S..X_.:X@XoX[.A.oXoXA.G K Y K J l S K K R a.o.+.o.j u f h a d a a j h j h 7 a h 9 ",
"pX5X@X<XdX*X>XOXOXOXoXoX{.{.`.g.S._._.6X6XwX6X6X>Xm.`.oXOX_.C.oX.Xn. .s.b.X.O.{ } { 8.+.O.+.+.+.^ Y ` _ ) ~ J / z j j d 7 7 h a ",
"fXpXdXdXdX6X>X@X=XOXOX=XoXXX6X;XoX.X{.7X6X3X@X@X@Xn._.[.)._._.@X+XS.S..XW.N.n.W 0.b.A.m.{ { +.+.o.) x S i f J g l l j j 5 7 h k ",
"dXhXhXrX6XwXwXpXtX>XrX4X6X6X9XiX7X6XrX].].6X.X3XoX .:X+X{.S.].@X+X.XW.S.[.V.V.B X.O.0.A.N G b.+.+.% 7 A 4 3 x @ g ^ a 9 a 5 h a ",
"hXhX=XtXtXtXeX6X4X=XeX>X7XOX6XyX;XoXrXp.C.7X..OX@X[ m.d.y.y.p.d.#XS.S.V.V.n.N.W X.W R 0.T B M.a.+.a w S 4 ; x @ 9 0 5 < a 6 0 7 ",
"8X$X9.{.k.P.k.'.XXB.k.Z.6XXX%Xv.Z.@.2XB.OX>XZ oX>Xi.) ..E Q C.a.W.N.V.V.V.t f W 0.{ R T P v a.b.b.S 3 S > 1 J # h h a < w % 5 0 ",
"6Xt.t.>.>.<.e.P.XXx.z.I.9X3XXXw.P.@.@XK.XX>X-.>X@X3./ ..7.C ,.B.W.n.V.O.Y g g ~ x F W W p $ O.b.b.Y m o.c b ) - j / l - 7 . y h ",
"$Xz.I.x.x.E.$X-X3X@XY.*X=XU.Q.u.=XM.5Xg.}.6Xw.OX@X5.p.f.g.&.i.q.Y x x x h h x u x X.0.v.p # | M.b.| S +.s f o.w z ^ z   - . 7 k ",
"E.I.*X|.-X*X X-X4X=X*XI.K.T.T.T.R._.3Xc.K.U.*.>.i.w.y.0.,.B.{ F ! W T T T Y C f F T B S Y y p P W R c Y p p Y t h x t o 7 5 # > ",
"D.J.H.!.R.R.E.^.^.!.J.J.D.!.0X7XH.D.D.0.X.W v.W z l *.D.V.d.m.,.&.Q W ! B ! B B B C Q X.Y } W B r i 1 1 t 7 , > 2 2 i g 9 8 8 > ",
"0XtX&X!.!.Q.~.&X&XQ.#X3X9XyX6X6X6X2XW.+.' ( ( x ~ O._._.d.C..XS.q.8.O.W X.X.W Y W R  . .J _ | ^ Y d & & 0 & u y f h h g t 7 7 % ",
"rXdXdXwX7XyX9XrXpXiXpXpXaXuX7XwX6X6X6X6X5X5X3X2X>X<X;X@X3X3XOX+XW.W.W.W.[..X.XC.V.n.n.n.b.b.f.o.+.b.o.' o.` ` ) Y x l l l l h h ",
"dXhXhXlXlXlXlXlXhXhXfXdXaXpXrXrX6X5X;X;X2X:X:X:XoXoXoXoX].'.].S.A.N.n.N.A.C.0.X.X.X.} | | ` | ` ` ` ) ) ) x z l z h y a y 0 7 7 ",
"wXwXeXwXiXwX5XwX<X:X<X;X@X;XoX{.Z._.).d.a.a.m.C.4.4...p.]  . .[ R R R { [  .F G J Y x x H H h l l x s h l h a a h a 7 7 7 7 % % ",
"<X:X+X=X<X5X5X2X<X>X<X,XOX>X$X|.|.oXZ.Z.{.C._._.g.d.j.f.f.s.p.p.X.6.{ { _ } { [ R { R K / I ` K J Y J J x z j j h h a 7 y 7 7 , ",
"eX6X<X<X<X5XeX5X<X6X>X>X<X<XOXOXoX{.'.Z.'.Z.Z.S.f.).j.p.f.k.r.4.4.2.X.} { 8.E } G K Y { K _ J J F J J S l / l z d h i a 9 5 5 , ",
">X;X;X,X;XeX<X;X<X-X;X*XOX5X=XOX{.OX'.'.{.'.Z.j.s.k.d.C.p.).j.8.8.3.} { 6.} R R R R _ R R F J F l K l j h S l h j l a a h 8 7 6 ",
"eXeXrX<X;X,X8X<XrXeX<X<X7X,X*X<XoX>XoX'.|._.S.oX{.{.Z.{.s.g.j.d.d.Z.q.8.6.q.2.{ } W R R I Y | K H / _ / / H H / l / d a l d y 8 ",
"dXrXdXhXrXtXhXaXrXtXpXtX4XrX4X*XuX<XXX=X'.}.j.Z.Z.Z.@X|.C.{.OX9.OXN.B.W.s.9.6.0.0.W 0.} R S  .] _ | | J { _ l _ j 9 j j 5 9 l 8 ",
",XaXeX*XaXrX,XgX<X XhXpXI.,X=Xx.rXk.P.>X5.h.4.t.f.5.@XL I {.s.A T.q.q.V.J 9.N.f G W Y } { w L l a | l a | j 6 K j @ l z @ 5 h y ",
",XaX X XdX*X-XtX X XaX-Xz. Xz.e.=X:.x.XX*.r.w.r.r.;.U.#.*.V.7.V y.q.=.q.D q.9.B Q [ S R G v A K Z O.j q { s 6 K j < d j - < d < ",
"|.*Xz.E.rX X X8X X X8X-X<.*Xz.z.,Xz.L.9X<.t.e.K.z.;.U.<.i.W.u.*.h.U.-.7.&.v.q.U 6.[ D N 4.n n b b K m e S e 3 j s > i l < < d 6 ",
",X<X X8XtX X,XtX X,XtX XJ.*XR.G.*XD.E.3X:.x.<.L.x.:.@XS.XXh.h.*.y.V.y.;.w.v.=.U 2.P D W 8.N D m c Z b c j Z i s S 3 q z q ; a 9 ",
"pXdXI.8XpXx.,XhX X,XhX8XI.8Xx.E.>Xz.E.>X<.}.T.Y.k.t.3Xr.y..Xg.-.Z.y.q.E T 6.,.D G =.D G E N n I c S G c L D 3 S K 6 i J w ; a a ",
"8X,X8X8X,X8X*X8X X8XpX6X$X>X$X$X4XL.*X=Xx.P.$X}.P.K.$Xh.y.{.B.r.B.N.y.-.F 6.w.B F Q P S W V n ] b K K n L S s K K w a / a 6 j f ",
"*X8XhX*XrXhX,X,XpX8XsX8X,X=X=X1X-X*X-X0XE.P.$X~.}.U.P.B.P.XXZ.u.h.B.c.7.n 7.i.m G [ n n E I I I I A K A R _ Z K H Z s J j 6 s h ",
"rXtXgXrXrXhX8X4XaXrXpXrX,X=X=X$X,X1X=X3X$X$X3X4X$XZ.k.U.V.{.U.g.N.{.V.v.=.q.g.W [ 0.T G R R G I K S K L K K l S K l d l h 6 6 9 ",
"hXhXhXgXaXaXhXfXpXtXtXtXuX9XqX9XuX9X9XyX7X9XuXiX6X=X@XXX@XOX@XoX.XXX.XoX{.P.V.V.r.9.0.[ I [ I I I  .O. .| { ] _ _ _ / J z l h z ",
"hXhXkXhXsXaXgXpXtX7XrXtXqX9XuXyXuXrX6X9X6X9X9X9X4X@X=XoX@XOXXXXXXX.XS.@XoX.XV.u.2.y.9.2.8.q.0.8. . .O. .O.{ { _ _ _ / / z z z z ",
"dXdXdXaX9XtXpXyXtXrXeXrX7X3XyXuXrX9X3X6X6X6X6X9X3X@X>XoX.XU.S..XW.S.W.S.V.N.U.N.y.g.9.6.} } }  . .{ ` ] O._ _ ) J J / z h k h h ",
"rX6X<X>X>X6X6X=X=X*X=X;X=X1X@X4X0XoX=XXX$X=X-X=XU.U.U.T.v.v.7.6.N.q.W 6.q.8..X6.3.q.;.I I I R }  . .| { O.| ` K _ K ^ H l h h h ",
"rX,X,X8X>X9X>X=X>X@X>X=X=X4X3X1X=X.XXXXXXXXX@X=X%XoXZ.K.u.q.q.W q.g.q.6.7.q.XXy.g.S.d.N.N.s.q.O.8.O. .o.{ { | _ _ J H ^ z z l h ",
"<X8X,X4X-X8X6X3X%X@X3X#XoX=X=X=XXXY.XXoXU.XX=X=X%XXXV.U.B.q.y.y.8.0.7.y.6.q..XS.V.V.N.A.N.0.s.+. .{ ] ] K K { _ ` J J l l l l h ",
"8X,X3X0X0X3XqX0X9X6X@X1X=X%X%X=X=XXXXX#X}.@XXX$XOXK.B.Z.g.8.q.N.N.y.q.q.8.s.W.V.A.B.N.N.n.a.n.O. .] ] I L Y ` { _ J J z l l h h ",
"aXgXsXgXsXpXuXpXuXuX7X6XuX6X4X0X7XXXXX1X1X0X6X6X6X=XXXXXW.V.T.S.S.V.N.v.V.N.B.V.N.N.n.q.n.a.a.p.[ { [ L K ] _ ` _ J x x z z l k ",
"fXsXuXuXsX6X0XuX0X7X1X1XqX9X6X4X9X=X=X9X3X=X6X9X9X6X=X@X=X.XXXXXXXW.W.T.V.V.q.q.0.q.0.0.n.n.0.X.O.I L G | _ Y _ Y / x z z z h y ",
"sXuXuX9XuXsXuXsXqX6X4X6X9X7X4X=XyX-XQ.9XoXU.6XQ.OX=XOX=XXX.XXX[ V.W.q.q.q.R q.X.K 8.j [ O.S _ K s G F z J l , S S H H H z z * # ",
",X1X0XqXqXsXqX0X9XqX4X1X3XqX4X3X6XXX}.qX=X=X4XXXOX=X#XQ.T.W.|.P B.V.6.,.9.S 9.R P 8.s 2.K a X.F f K S S J j 1 F J S ^ 0 g z 5 + ",
",X-X0X9XuXpX4XqXuXqX7X6X=XqX6X=X1XOX=X=X=X=X$XXXXXXXP.u.u.S.h.Q -.N.q.v.N.U 9.8.6.q.Q 9.R f  .G p F F J S f 6 S l l z 7 h l : : ",
"rX9XqXrXsX4X=XqXqXqX9X1X%X~.%X@X=X%X=X=XXXXXXXXXQ.Y.XXV.B.{.Z.*.w.V.7.7.N.! 6.8.Q | T }  .p } { b D F s J S p S S j a h h h - : ",
"0X9XrXrXpX3X1X0XuX9X9X=Xz.z.XX=XOX#X3X6XQ.u.XXXX.XXX*Xu.i.|.U.y.y.B.-.-.N.X.8.6.E X.{ X.} c | X.Y B j 2 Y f F l f a i 8 9 w 6 6 ",
"9X9XrX9X9XR.!.6X1XQ.0X3XXX=XY.}.oXOXOX=XY.F.{.Y.oX.X@XF.c.B.V.N.y.u.=.w.N.} 0.8.2.q.}  .] D R 6.F S Z s f f j f i 8 , 1 w a 8 a ",
"uXqXqXrX8XR.&X&X&X!.,XyX%X@XU.*XoX#XXX@X*Xx.@X@XI.OX6XV.u.{.XXr.N.q.6.y.n.X.q.q.2.0.8.X.} K { { F J J p x S f j l x 1 a l a 8 1 ",
"uX9XrXrX4X^.^.E.^.J.rX7XQ..Xc.=X%X.X3X3X@XU.>X6X{.=X7XP.u.S.|.3.r.W.y.c.n.X.s.6.[ q. .{  .P { { F J Y p l Y f l z j , d l h q # ",
"uX8XrXaX7X/.J.x.~.^.yX9X@X.XW.3XOXQ.6X7X=XY.@X4X*X=X6X}.P.Z.P.y.7.XXB.N..X0.n.0.2.8.{ { O.[ } | Y S Y f z J l F J h < d l k 9 6 ",
"uXtXpXdXrX0X&Xx.~.^.9X=X{.F.F.W.=XY.6X6XXXXX|.@XXXXX6X{.}.V.S.B.y.U.V.h.+Xs.n.V.E C.0.{ a.Q R ` R F Y f f l f f J a = i z g 9 6 ",
"hXaXfXfXgXgXaXyXrXyX9X0X3X3X=X,X7X1X3X3XOXXXW..X{..X*X{.U.B.P.y.w.q.B.5.V.s.0.s.N } 0.Y O.X.Y ` Y B F x d z f 2 d k - 7 j a q 6 ",
"rXrXrXtXtXrXiXrXyXpX9X6X9XrX7X9XrXrX7X3X9X3X5X3X6X5X4X5X>X@XXXXXS.A.V.N.A.V.n.n.O.0.0.+.a.O.| O.R Y Y ` z J F x l l d d a y y 9 ",
"=X5XOXoXoX@XOX;X9X>X@XOX+XXXoXoX;X3X@X@X;XoX2X2X;X>X;X3X3X@XOXXX.X[..XS..XS.C.A.m.n.n.b.n.n.a.O.{ o.| _ J J / ) J z h l h a h a ",
">X>X{.{.XX*XP.@X3XoX*XS.'.c.U.S.P.B.v.A._..X|.oXoXU.S.Z.N.S.N.s.0.q.0.0.n.O.a.8.X. .| 0.O.a.+.@.O.o.` _ _ F l x l j d d y y y y ",
"3X>XoXOX>XOXoX>X>X>XXX'.'.y.U.S.XXZ.B._..X'.{.[.B.g.B.C.N.N.q.y.q.q.6.q.8.8.0.[ R Y O.b.O.+.a.+.@.| _ _ ) J z J l h k y y y 8 u ",
"Y.oX@X;X|.=X3XS.P.oXXXN.Z.N.S.U.S.h.c.`.U.h.B.S.B.N.V.B.N.N.N.N.q.q.8.0.s.8.{  .X.R 0.O.O.O.a.a.+.| | ` _ S x J l l j a d h a y ",
"6X4X3X6X5X7X6X3X@XU.U.B.S.V.S.U.S.oX=Xg.v.k.N.S.{.N.g.B.g.q.q.,.6.R X.q.6. .[  .W |  .R O.+.+.+.O.| _ Y Y l J l z j 8 t d a y y ",
"9X6X1X4XtXyXrX6X9X7XwX`.XX6X6X>XXXXX>XXXOXXX`.N.S.S.N.S.S.V.S.B.q.[  .6.0.X.[  .R O.Y Y O. .O.O.| | j z J z x l l d # 7 a a a y ",
"7X6X3X3XwXyX>X}.3X=X1XB.}.XXXX=X=Xw.U.XX;X=X=X#XOX@XoXB.W.B.S.q.n.} 8.0.0.8.{ 8.} O.} o.Y R  .o.{ ` j J x f l x l 1 1 7 y y y y ",
"4X6X7X6X6XrX.Xu.=XF.u.K.K.-.;.XXXX$.-.XX+XOXoXXX.XOXXXE B.q.N.q.q.N } q.W G { 8.} | R R Y ` | o.| J p a j l j h l t ; # y h a y "
};
