/* XPM */
static char *result[] = {
/* columns rows colors chars-per-pixel */
"50 50 52 1 ",
"  c #302C29",
". c #36332B",
"X c #38352D",
"o c #3A3732",
"O c #3E3C32",
"+ c #413E35",
"@ c #423F38",
"# c #454236",
"$ c #44413A",
"% c #4A463C",
"& c #4E4A3D",
"* c #4A4742",
"= c #4E4C40",
"- c #544C43",
"; c #565344",
": c #5A5645",
"> c #5C5947",
", c #56544A",
"< c #5A564A",
"1 c #5D5A4C",
"2 c #5A5750",
"3 c #5E5B52",
"4 c #625D4D",
"5 c #615E52",
"6 c #65614E",
"7 c #69624F",
"8 c #656253",
"9 c #6B6554",
"0 c #6F6956",
"q c #656358",
"w c #6B6659",
"e c #6E6959",
"r c #706756",
"t c #716957",
"y c #706758",
"u c #726B5A",
"i c #786F5E",
"p c #76705E",
"a c #6E6F63",
"s c #736E61",
"d c #767162",
"f c #7A7463",
"g c #7C7A66",
"h c #7A7768",
"j c #7D7C6B",
"k c #807E6D",
"l c #817F72",
"z c #7F8070",
"x c #84816E",
"c c #848272",
"v c #898573",
"b c #878973",
/* pixels */
"bgggxbf##djcjzl8&dzhce8c,aczjjxg+&djjcgxq&gxjjeqj,",
"j>6900e84q1:;;9q86wq;;12,1>;186>51q4:>;69:w1181,qO",
"x:0uuueeiu9ye8tuae9waw1;1668wpppduir99qpupf69eq>2O",
"h9puupuurutyiept9p:;de>818eiut0trtuuiieu0u0:49e42O",
">0u9utupuiurruiupu76900uuuuuputuuuiuutytptt979d62O",
"8uuuiutttyuiuuttu9pp0up0uuuutuuutturyyiiu0upu0p93O",
"vi07utuuuruuuuti0uu0ttupuuuuuuuuuiuuuuptptueu6q03O",
"j1pptuupitutuuutupuuuputuuuuuuuuuuyusuut0tped8;13@",
"g900uriuuuuuututuutuuutuuuuuuuuuutuuuuututwtu9>>2O",
"h60piyrrrttttuuptuuutuuuuuututuuuuuuutuuuitysy9t3#",
"c;6tuuusiuuuuuuuuuuuuuuuuuuuuuutuuuuuututiutuutsq$",
"z;9iuuyyttuuuuuuuutuuututuuutuuutuuuuuuutuuuuw748O",
"j;eu0uuduuuuuutttuuuuututuuuuuuuuuuuuuuuutuute5:,.",
"j19eiiy9tuurututuuutuuuuuuuuuuututututuuieuuist5,.",
"a,3si4-%467rtuuiuuuutuutuuututuuuuuuututuuu09upe3#",
",O*--+-5ruuuuuuruutuuuuuuuuuuuuuuutuuuuuutu9>8i08+",
"x95&;w#8uuuuuutituutuutuuttuuutuuuuuuuutuui<4i9pq+",
"u9iuif6uutuututtuuuuuuuutpuuuuuuuttuptuuuii8ed0p5+",
"86tse077uttuptuuttuuuttttuuutuutptuutuuuu0teus9t8+",
"kutirtt0tpuuutuuuptuuuupuutuuuuutuuttuutu0eiuw443+",
"x7tuttt7tutuuuuuuupttuutuuuuuutuutuuutuuuuuuui5<3O",
"k>ppuittuuuutuututtuuuuuutuuuuuuuuuuuuututuu0iw13O",
"z:6utttputuuuuptuutuuuuuuuuuuuuutuuuuupttetueie21O",
"z;19ptptutptuttuuuuutuuttutuuututptuuttuituuuuw>1O",
";11wf0p9tuutuuuuuutuuuuuuuuuutuuuuutptuuttutee815O",
"a1qee0iuuuuuuuutuuuuuutuuuutuuuutuuuututuuutie1,3+",
"z;wptuttuutuuttutpuutuuuuuuuuuuuuuuuuuuutuu0ie3<3O",
"b:eptuttttputpuutttuuutuutuuuuututuuutuutt068i913O",
"d9iyuuuuuuuuuutuutuuuutuuuuuuuuuuutttuutptt6>ee>2O",
":0iuiruuuttutuuuuuuuuuuuuutututuuuptpuuuutp91ed82O",
"69uuirtuuutpuuuutuututtututuuuuuuttuttuuteu0eiee3@",
"vptriutiuuttuuttpuuuuuuuuuuuutuuuuuuuuuu0puedw1e3O",
"j6uiruuyuuruuuuutuuuuttuuuutuutuuuuuuuuttttpi6:43O",
"z>wiyuuuuuuuuuuuuuuuuuuuuuuuuuuututuuttptuttt9>:1O",
"z>wuuuuuuuuuuuuuuuuuuutuuuuuututtpuuuuuutuutuuww3+",
"z:8iuutuuuuuuruuutuuuuuuuutuuuuuttuuuututtuisyudq$",
"z:8ittyuutuuuuruuuuuutuuuuuuuuuuuuuututut0tit8853#",
"g:9eittuuuuuuuuuuutuuuuuututututtuutuutpiittei9;;.",
"z>0ituuuuuruuuuuutuuuuuuutuuutuuuuutuuutuuittst4,.",
"g>0utuuuutuuuuruuuutuuuuuuuuuuuuuutputuuiwtu0wsuq#",
"g6upu0pttuuuuuietuuiieutuuuutuueiuiuttu0t0w5>0tuq+",
"x9ttttp0tuttttwipuuteeuuuuuuttuetuuttpu0tii81eutq+",
"a7puuppuuupppt0tttuuuuut47tuuit9uittuupp0tu8wippq+",
"66ptt000ut990uuuttuuuu09>4tiuu09wettptee9>49di9t3+",
"xtptpuupw6;>60uupp0ttp0w9wiittue<w90uuei9>:4ie>13#",
"x900tttp8::4epieeettppe85wieeupt=999pupew846wu8>1O",
"x70ppupt868upeq61weuutw1,4qeuiu8%suyi0e888e00sw11O",
"x&60tu0>pt0aw4,:,3000731,18w0ut5%sstt98<,1ep0w812O",
"z6:,qw,Oqqq5533133331133222233,*5588523313883311,@",
"#OO#+OooOO+O+OOO@@$$++@@@$@@$*@ O+$+OOO+O+OO+OOO*o"
};
