/* XPM */
static char *result[] = {
/* columns rows colors chars-per-pixel */
"51 45 164 2 ",
"   c #000000",
".  c #0B0B0B",
"X  c #140D05",
"o  c #141414",
"O  c #1C1C1C",
"+  c #2C1C0B",
"@  c #241709",
"#  c #33200C",
"$  c #0A2136",
"%  c #242424",
"&  c #2B2B2B",
"*  c #302A26",
"=  c #302F31",
"-  c #343434",
";  c #3D3D3D",
":  c #5F4914",
">  c #684818",
",  c #744A1C",
"<  c #7E4F19",
"1  c #7A521C",
"2  c #7F581D",
"3  c #7D5625",
"4  c #7E5932",
"5  c #010642",
"6  c #020858",
"7  c #0E2E49",
"8  c #4D3645",
"9  c #10406A",
"0  c #444444",
"q  c #4E4D4E",
"w  c #5E414C",
"e  c #5B4157",
"r  c #545454",
"t  c #5B5B5B",
"y  c #564064",
"u  c #646464",
"i  c #6D6D6D",
"p  c #747474",
"a  c #7B7B7B",
"s  c #845519",
"d  c #835919",
"f  c #88631E",
"g  c #8E6A1E",
"h  c #87621E",
"j  c #916D1F",
"k  c #95721F",
"l  c #9C7A1E",
"z  c #AC6F1C",
"x  c #BA771C",
"c  c #815D27",
"v  c #815D35",
"b  c #9D7C20",
"n  c #8A6937",
"m  c #8A692E",
"M  c #B37728",
"N  c #C27E1C",
"B  c #856643",
"V  c #987C5E",
"C  c #8F7D69",
"Z  c #A4841E",
"A  c #A48422",
"S  c #A78821",
"D  c #A78825",
"F  c #BD802C",
"G  c #AF9121",
"H  c #B39622",
"J  c #BC9C22",
"K  c #B49D33",
"L  c #BEA424",
"P  c #B6A033",
"I  c #CA891C",
"U  c #C4861D",
"Y  c #D48C1D",
"T  c #C4911E",
"R  c #D6991F",
"E  c #EC971C",
"W  c #F39B1C",
"Q  c #FFAB1D",
"!  c #FFB41E",
"~  c #FFB81F",
"^  c #C0822C",
"/  c #C09721",
"(  c #C1A422",
")  c #C7A723",
"_  c #CBB424",
"`  c #D4BD25",
"'  c #FFB920",
"]  c #D6C125",
"[  c #DBC526",
"{  c #DDC926",
"}  c #DECA28",
"|  c #D9C428",
" . c #E2CE26",
".. c #EBC624",
"X. c #F9C823",
"o. c #E9D627",
"O. c #EFDE27",
"+. c #EAD927",
"@. c #FCD625",
"#. c #FFDB25",
"$. c #FFE427",
"%. c #F3E328",
"&. c #F7E829",
"*. c #FCEC29",
"=. c #FAEA25",
"-. c #FFF229",
";. c #FFF227",
":. c #9E8748",
">. c #A68949",
",. c #B79F5F",
"<. c #B2997E",
"1. c #B29776",
"2. c #E9DB68",
"3. c #030A83",
"4. c #050D97",
"5. c #3C3C97",
"6. c #0F37AD",
"7. c #0C2DBE",
"8. c #4C5191",
"9. c #607D97",
"0. c #0B17F6",
"q. c #0214FF",
"w. c #113EFF",
"e. c #1446FF",
"r. c #1D67FF",
"t. c #4E57D7",
"y. c #3A82EF",
"u. c #2D9CFE",
"i. c #5CA1DC",
"p. c #838383",
"a. c #8C8C8C",
"s. c #999184",
"d. c #949494",
"f. c #9C9C9B",
"g. c #BFA687",
"h. c #A4A4A4",
"j. c #ABABAB",
"k. c #B5B0AA",
"l. c #B8B1AA",
"z. c #B3B3B3",
"x. c #BCBCBC",
"c. c #B7B7B8",
"v. c #C6B48B",
"b. c #C6B593",
"n. c #CCBDAC",
"m. c #FDF58E",
"M. c #CFC1B3",
"N. c #D4C7B9",
"B. c #C3C3C3",
"V. c #CACACA",
"C. c #DCD1C4",
"Z. c #D2D2D2",
"A. c #DBDBDB",
"S. c #E0D7CC",
"D. c #EBE5DF",
"F. c #E6E6E6",
"G. c #ECECEC",
"H. c #EEE9E3",
"J. c #F5F2EE",
"K. c #F5F5F5",
"L. c #F9F7F5",
"P. c #FDFDFD",
"I. c #FAF9F7",
"U. c None",
/* pixels */
"U.U.U.U.U.U.U.U.U.U.U.U.U.U.U.U.U.U.U.U.U.U.U.U.U.U.U.U.U.U.U.U.U.U., , , , U.U.U.U.U.U.U.U.U.U.U.U.U.",
"U.U.U.U.U.U.U.U.U.U.U.U.U.U.U.U.U.U.U.U.U.U.U.U.U.U.U.U.U.U.U.U.U.U.f f h h U.U.U.U.U.U.U.U.U.U.U.U.U.",
"U.U.U.U.U.U.U.U.U.U.U.U.U.U.U.U.U.U.U.U.U.U.U.U.U.U.U.U.U.U.U.U., d  .%.%.` 3 , , , U.U.      U.U.U.U.",
"U.U.U.U.U.U.U.U.U.U.U.U.U.U.U.U.U.U.U.U.U.U.U.U.U.U.U.U.U.U.U.U.j l O.;.$...k g k g U.X   . o U.U.U.U.",
"U.U.U.U.U.U.U.U.U.U.U.U.U.U.U.U.U.U.U.U.U.U.U.U.U.U.U.U.U.U., 2  .*.;.$.! ~ *.&.&.( , +   = q o   U.U.",
"U.U.U.U.U.U.U.U.U.U.U.U.U.U.U.U.U.U.U.U.U.U.U.U.U.U.U.U.U.U., 1  .*.#.X.Y Y ` ..-.] A : @ * - .   U.U.",
"U.U.U.U.U.U.U.U.U.U.U.U.U.U.U.U.U.U.U.U.U.U.U.U.U.U.U.U.U.U., 1  .*.! E s , > b -.-.-.H , @       U.U.",
"U.U.U.U.U.U.U.U.U.U.U.U.U.U.U.U.U.U.U.U.U.U.U.U.U.U.U.U.U.U.S H ..X.I F 1.<.g.,.) } -.] G : + X   U.U.",
"U.U.U.U.U.U.U.U.U.U.U.U.U.U.U.U.U.U.U.U.U.U.U.U.U.U.U.U., , ] -.' W s n J.P.P.M., H -.-.-.S , U.U.U.U.",
"U.U.U.U.U.U.U.U.U.U.U.U.U.U.U.U.U.U.U.U.U.U.U.U.U.U.U.1 z U ..*./ M g.n.L.K.Z.l.C :.H | -.] L j , U.U.",
"U.U.U.U.U.U.U.U.U.U.U.U.U.U.U.U.U.U.U.U.U.U.U.U.U.U., , I Q #.&.j v H.P.P.F.h.h.h.C , L -.-.*.b , U.U.",
"U.U.U.U.U.U.U.U.U.U.U.U.U.U.U.U.U.U.U.U.U.U.U.U.U.U., , / #.J D b.N.I.K.V.c.h.h.h.k.M.2.-.-.*.l , U.U.",
"U.U.U.U.U.U.U.U.U.U.U.U.U.U.U.U.U.U.U.U.U.U.U.U.U.U., 1 _ -.b 3 S.P.P.G.j.h.h.h.h.V.P.m.=.*.=.b , U.U.",
"U.U.U.U.U.U.U.U.U.U.U.U.U.U.U.U.U.U.U.U.U.U.U.U.U.U., , _ -.o.| >.V k.c.h.h.f.c.F.K.P.v.k R ~ ..| g , ",
"U.U.U.U.U.U.U.U.U.U.U.U.U.U.U.U.U.U.U.U.U.U.U.U.U.U., , ) *.-.&.l 3 s.f.h.h.j.V.P.P.J.<.< Y Q $.&.j , ",
"U.U.U.U.U.U.U.U.U.U.U.U.U.U.U.U.U.U.U.U.U.U.U.U.U.U., 1 I ' #.-.O.} m B f.c.J.K.P.n.n ^ E X.$.-.&.g , ",
"U.U.U.U.U.U.U.U.U.U.U.U.U.U.U.U.U.U.U.U.U.U.U.U.U.U.U., N E @.-.-.&.l m s.k.P.L.D.g.s I ! #.;.O. .g , ",
"U.U.U.U.U.U.U.U.U.U.U.U.U.U.U.U.U.U.U.U.U.U.U.U.U.U.U.U.s s { -.-.*.%.{ 3 V P.N.4 M W X.*.-.*.A 2 U.U.",
"U.U.U.U.U.U.U.U.U.U.U.U.U.U.U.U.U.U.U.U.U.U.U.U.U.U.U.U.8 e P  .&.;.-.O.Z >.C.b.k T ! ..{ { | b , U.U.",
"U.U.U.U.U.U.U.U.U.U.U.U.U.U.U.U.U.U.U.U.U.U.U.U.U.U.U.  4.0.e d o.-.-.;.*.| 3 A &.*.-.J , 1 1 U.U.U.U.",
"U.U.U.U.U.U.U.U.U.U.U.U.U.U.U.U.U.U.U.U.U.U.U.U.U.U.5 6 7.e.5.y K ` @.#.-.o.S ( #...` S , , , U.U.U.U.",
"U.U.U.U.U.U.U.U.U.U.U.U.U.U.U.U.U.U.U.U.U.U.U.U.U.  3.q.r.u.e.0.w s E ! *.-.-.#.Q N , U.U.U.U.U.U.U.U.",
"U.U.U.U.U.U.U.U.U.U.U.U.U.U.U.U.U.U.U.U.U.U.U.U.& q 8.t.y.u.6.3.8 s x U ( ( ( / N z , U.U.U.U.U.U.U.U.",
"U.U.U.U.U.U.U.U.U.U.U.U.U.U.U.U.U.U.U.U.U.U.U.  0 h.h.h.i.u.7   U.U., , , , , , , , U.U.U.U.U.U.U.U.U.",
"U.U.U.U.U.U.U.U.      U.U.U.U.U.U.U.U.U.U.  * t a h.B.A.9.9 $ U.U.U.U.U.U.U.U.U.U.U.U.U.U.U.U.U.U.U.U.",
"U.U.U.U.U.U.U.U.      U.U.U.U.U.U.U.U.U.U.  - h.h.h.Z.P.u   U.U.U.U.U.U.U.U.U.U.U.U.U.U.U.U.U.U.U.U.U.",
"U.U.U.U.U.U.  r z.j.j.t       U.U.U.U.  % i 9.h.x.F.f.q - U.U.U.U.U.U.U.U.U.U.U.U.U.U.U.U.U.U.U.U.U.U.",
"U.U.U.U.U.U.  t I.P.P.p . . . U.U.U.U.. & f.j.h.B.I.p   U.U.U.U.U.U.U.U.U.U.U.U.U.U.U.U.U.U.U.U.U.U.U.",
"U.U.U.U.U.U.  o - f.P.A.B.f.a %     o a a.f.x.J.h.; & U.U.U.U.U.U.U.U.U.U.U.U.U.U.U.U.U.U.U.U.U.U.U.U.",
"U.U.U.U.U.U.o .   i F.K.I.B.f.%   . & d.j.j.x.F.a.  U.U.U.U.U.U.U.U.U.U.U.U.U.U.U.U.U.U.U.U.U.U.U.U.U.",
"U.U.      = a.r   . % p z.h.f.% . a a.h.z.L.z.% O U.U.U.U.U.U.U.U.U.U.U.U.U.U.U.U.U.U.U.U.U.U.U.U.U.U.",
"U.U.& %   % p.u O % & a z.d.p.- % a.h.z.x.Z.f.  U.U.U.U.U.U.U.U.U.U.U.U.U.U.U.U.U.U.U.U.U.U.U.U.U.U.U.",
"  % A.x..   . 0 d.x.G.I.P.r . p f.f.z.L.V.O o U.U.U.U.U.U.U.U.U.U.U.U.U.U.U.U.U.U.U.U.U.U.U.U.U.U.U.U.",
"  O V.V.q =   0 x.A.P.Z.c.t & a.j.c.x.x.f..   U.U.U.U.U.U.U.U.U.U.U.U.U.U.U.U.U.U.U.U.U.U.U.U.U.U.U.U.",
"  o d.x.L.z.  t P.P.P.p   i h.f.j.L.A.O   U.U.U.U.U.U.U.U.U.U.U.U.U.U.U.U.U.U.U.U.U.U.U.U.U.U.U.U.U.U.",
"  . t a.P.V.; a A.B.h.u ; p.h.B.B.h.d.o U.U.U.U.U.U.U.U.U.U.U.U.U.U.U.U.U.U.U.U.U.U.U.U.U.U.U.U.U.U.U.",
"      - L.F.j.h.j.r   t h.h.h.J.G.&   U.U.U.U.U.U.U.U.U.U.U.U.U.U.U.U.U.U.U.U.U.U.U.U.U.U.U.U.U.U.U.U.",
"U.    O a a.h.p.r r q p.h.B.Z.d.a % U.U.U.U.U.U.U.U.U.U.U.U.U.U.U.U.U.U.U.U.U.U.U.U.U.U.U.U.U.U.U.U.U.",
"U.U.      & h.u   q h.h.h.F.K.;   U.U.U.U.U.U.U.U.U.U.U.U.U.U.U.U.U.U.U.U.U.U.U.U.U.U.U.U.U.U.U.U.U.U.",
"U.U.U.    o ; q u p.f.B.A.a.u & U.U.U.U.U.U.U.U.U.U.U.U.U.U.U.U.U.U.U.U.U.U.U.U.U.U.U.U.U.U.U.U.U.U.U.",
"U.U.U.U.      ; h.h.h.A.P.q   U.U.U.U.U.U.U.U.U.U.U.U.U.U.U.U.U.U.U.U.U.U.U.U.U.U.U.U.U.U.U.U.U.U.U.U.",
"U.U.U.U.U.U.  ; h.B.F.a.0 = U.U.U.U.U.U.U.U.U.U.U.U.U.U.U.U.U.U.U.U.U.U.U.U.U.U.U.U.U.U.U.U.U.U.U.U.U.",
"U.U.U.U.U.U.  ; d.B.K.u   U.U.U.U.U.U.U.U.U.U.U.U.U.U.U.U.U.U.U.U.U.U.U.U.U.U.U.U.U.U.U.U.U.U.U.U.U.U.",
"U.U.U.U.U.U.U.O % & = % U.U.U.U.U.U.U.U.U.U.U.U.U.U.U.U.U.U.U.U.U.U.U.U.U.U.U.U.U.U.U.U.U.U.U.U.U.U.U.",
"U.U.U.U.U.U.U.U.      U.U.U.U.U.U.U.U.U.U.U.U.U.U.U.U.U.U.U.U.U.U.U.U.U.U.U.U.U.U.U.U.U.U.U.U.U.U.U.U."
};
