/* XPM */
static char *result[] = {
/* columns rows colors chars-per-pixel */
"50 49 207 2 ",
"   c black",
".  c #010101",
"X  c #020202",
"o  c gray1",
"O  c #040404",
"+  c gray2",
"@  c gray3",
"#  c #090909",
"$  c gray4",
"%  c #0B0B0B",
"&  c #0C0C0C",
"*  c gray5",
"=  c #0E0E0E",
"-  c gray6",
";  c #101010",
":  c #111111",
">  c gray7",
",  c #131313",
"<  c gray8",
"1  c #151515",
"2  c #161616",
"3  c gray9",
"4  c #181818",
"5  c #191919",
"6  c gray10",
"7  c gray11",
"8  c #222222",
"9  c #232323",
"0  c gray14",
"q  c #252525",
"w  c #272727",
"e  c #282828",
"r  c gray16",
"t  c #2A2A2A",
"y  c gray17",
"u  c #2C2C2C",
"i  c #2D2D2D",
"p  c gray18",
"a  c #2F2F2F",
"s  c gray19",
"d  c #313131",
"f  c #353535",
"g  c #3A3A3A",
"h  c gray23",
"j  c #3C3C3C",
"k  c gray24",
"l  c #3E3E3E",
"z  c #3F3F3F",
"x  c gray25",
"c  c #434343",
"v  c #444444",
"b  c #464646",
"n  c gray29",
"m  c #4B4B4B",
"M  c #4C4C4C",
"N  c gray30",
"B  c #4E4E4E",
"V  c gray31",
"C  c #505050",
"Z  c #535353",
"A  c gray33",
"S  c gray34",
"D  c gray35",
"F  c #5A5A5A",
"G  c #5B5B5B",
"H  c gray36",
"J  c #5D5D5D",
"K  c gray37",
"L  c #5F5F5F",
"P  c #656263",
"I  c #646464",
"U  c #686868",
"Y  c DimGray",
"T  c gray42",
"R  c #6D6D6D",
"E  c gray43",
"W  c #6F6F6F",
"Q  c gray44",
"!  c gray45",
"~  c gray46",
"^  c #767676",
"/  c #777777",
"(  c gray47",
")  c #7B7B7B",
"_  c #7C7C7C",
"`  c gray49",
"'  c #7E7E7E",
"]  c gray50",
"[  c #808080",
"{  c #838383",
"}  c #888888",
"|  c gray54",
" . c #8D8D8D",
".. c #8E8E8E",
"X. c gray56",
"o. c gray57",
"O. c #959595",
"+. c gray59",
"@. c #979797",
"#. c #989898",
"$. c gray60",
"%. c gray61",
"&. c #9D9D9D",
"*. c gray62",
"=. c #9F9F9F",
"-. c #A5A5A5",
";. c gray65",
":. c #A7A7A7",
">. c gray66",
",. c #A9A9A9",
"<. c gray67",
"1. c #AFAAAC",
"2. c #ACACAC",
"3. c gray69",
"4. c #B2B2B2",
"5. c gray70",
"6. c #B4B4B4",
"7. c gray72",
"8. c gray73",
"9. c #BBBBBB",
"0. c #BCBCBC",
"q. c gray",
"w. c gray75",
"e. c #FFB8D0",
"r. c #FFB9D0",
"t. c #FFB9D1",
"y. c #FFBAD1",
"u. c #FFBCD2",
"i. c #C0C0C0",
"p. c gray76",
"a. c #C3C3C3",
"s. c gray77",
"d. c #C5C5C5",
"f. c #C6C6C6",
"g. c gray78",
"h. c #C8C8C8",
"j. c gray79",
"k. c #CACACA",
"l. c #CBCBCB",
"z. c gray80",
"x. c #CDCDCD",
"c. c gray81",
"v. c #D0D0D0",
"b. c gray82",
"n. c LightGray",
"m. c gray83",
"M. c gray84",
"N. c #D7D7D7",
"B. c #D8D7D7",
"V. c #D7D8D7",
"C. c #D8D8D8",
"Z. c gray85",
"A. c #DADADA",
"S. c gray86",
"D. c gainsboro",
"F. c #DDDDDD",
"G. c gray87",
"H. c #DFDFDF",
"J. c #E5CDD5",
"K. c #F1C4D3",
"L. c #FFC0D5",
"P. c #FFC1D6",
"I. c #FFC2D6",
"U. c #FFC4D7",
"Y. c #FFCADB",
"T. c #FFCFDF",
"R. c #FFD7E5",
"E. c gray88",
"W. c #E1E1E1",
"Q. c #E2E2E2",
"!. c gray89",
"~. c gray90",
"^. c #E6E6E6",
"/. c #E7E7E7",
"(. c gray91",
"). c #EAEAEA",
"_. c #ECECEC",
"`. c gray93",
"'. c #EEEEEE",
"]. c #EFEFEF",
"[. c #FFECF3",
"{. c #FFEEF4",
"}. c gray95",
"|. c #F3F3F3",
" X c #F4F4F4",
".X c gray96",
"XX c #F6F6F6",
"oX c gray97",
"OX c LavenderBlush",
"+X c #FDF6F8",
"@X c #F8F8F8",
"#X c #F9F9F9",
"$X c gray98",
"%X c #FBFBFB",
"&X c #FFF8FA",
"*X c #FFF9FB",
"=X c gray99",
"-X c #FDFDFD",
";X c #FFFCFD",
":X c #FFFDFD",
">X c #FFFCFE",
",X c #FFFDFE",
"<X c #FEFEFE",
"1X c #FFFEFE",
"2X c #FFFEFF",
"3X c white",
"4X c None",
/* pixels */
"4X4X4X4X4X4X4X4X4X4X4X4X4X4X4X4X4X4X4X4X4X4X4X4X4X4X4X4X4X4X4X4X4X4X4X4X4X4X4X4X4X4X4X4X4X4X4X4X4X4X",
"4X4X4X4X4X4X4X4X4X4X4X4X4X4X4X4X4X4X4X4X4X4X4X4X4X4X4X4X4X4X4X4X4X4X4X4X4X4X4X4X4X4X4X4X4X4X4X4X4X4X",
"4X4X4X4X4X4X4X4X4X4X4X4X4X4X4X4X4XX               4X4X4X4X4X4X4X4X4X4X4X4X4X4X4X4X4X4X4X4X4X4X4X4X4X",
"4X4X4X4X4X4X4X4X4X4X4X4X4X4X4X4Xj H H H H H H H J V 4X4X4X4X4X4X4X4X4X4X4X4X4X4X4X4X4X4X4X4X4X4X4X4X",
"4X4X4X4X4X4X4X4X4X4X4X4X4X*     k  X3X<X<X<X<X<X3XX.      4X4X4X4X4X4X4X4X4X4X4X4X4X4X4X4X4X4X4X4X4X",
"4X4X4X4X4X4X4X4X4X4X4X4X= ( #.O.3.%X3X3X3X3X3X3X3Xb.+.@.o.u 4X4X4X4X4X4X4X4X4X4X4X4X4X4X4X4X4X4X4X4X",
"4X4X4X4X4X4X4X4X4X4X4X8 : 3.3X3X3X3X3X3X3X3X3X3X3X3X3X3X'.f * 4X4X4X4X4X4X4X4X4X4X4X4X4X4X4X4X4X4X4X",
"4X4X4X4X4X4X4X4X4X4XX U x.'.3X3X3X3X3X3X3X3X3X3X3X3X3X3X%XM.-.* 4X4X4X4X4X4X4X4X4X4X4X4X4X4X4X4X4X4X",
"4X4X4X4X4X4X4X4X4X4Xa ..3X3X3X3X3X3X3X3X3X3X3X3X3X3X3X3X3X3Xb.g s 4X4X4X4X4X4X4X4X4X4X4X4X4X4X4X4X4X",
"4X4X4X4X4X4X4X4X. h ^.oX3X3X3X3X3X3X3X3X3X3X3X3X3X3X3X3X3X3X%X|.|   4X4X4X4X4X4X4X4X4X4X4X4X4X4X4X4X",
"4X4X4X4X4X4X4X4XL | $X3X3X3X3X3X3X3X3X3X3X3X3X3X3X3X3X3X3X3X3X3X0.I v 4X4X4X4X4X4X4X4X4X4X4X4X4X4X4X",
"4X4X4X4X4X4X% 4 Z.3X3X3X3X3X3X3X3X3X3X3X3X3X3X3X3X3X3X3X3X3X3X3X3X<XD   4X4X4X4X4X4X4X4X4X4X4X4X4X4X",
"4X4X4X4X4X4X# 2 C.3X3X3X3X3X3X3X3X3X3X3X3X3X3X3X3X3X3X3X3X3X3X3X3X<XS   4X4X4X4X4X4X4X4X4X4X4X4X4X4X",
"4X4X4X4X4X4X7 e S.3X3X3X3X3X3X3X3X3X3X3X3X3X3X3X3X3X3X3X3X3X3X3X3X<XI - 4X4X4X4X4X4X4X4X4X4X4X4X4X4X",
"4X4X4X4X4X$ +.C.@X3X3X3X3X3X3X3X3X3X3X3X3X3X3X3X3X3X3X3X3X3X3X3X3X3XQ.a.i o 4X4X4X4X4X4X4X4X4X4X4X4X",
"4X4X4X4X4Xo 2.3X3X3X3X3X3XA.f.f.m.-X3X3X3X3X3X}.j.g.g._.3X3X3X3X3X3X3X_.r   4X4X4X4X4X4X4X4X4X4X4X4X",
"4X4X4X4X4Xo <.3X3X3X3X3X-XK @ + c .X3X3X3X3X3Xd.> # = 2.3X3X3X3X3X3X3X).r   4X4X4X4X4X4X4X4X4X4X4X4X",
"4X4X4X4X4Xo <.3X3X3X3X3X-XA + F o.#X3X3X3X3X3XF.~ j   :.3X3X3X3X3X3X3X).r   4X4X4X4X4X4X4X4X4X4X4X4X",
"4X4X4X4X4Xo <.3X3X3X3X3X-XA > C.3X3X3X3X3X3X3X3X3XX.  :.3X3X3X3X3X3X3X).r   4X4X4X4X4X4X4X4X4X4X4X4X",
"4X4X4X4X4Xo <.3X3X3X3X3X-XA X b [ @X3X3X3X3X3XN.L a   :.3X3X3X3X3X3X3X).r   4X4X4X4X4X4X4X4X4X4X4X4X",
"4X4X4X4X4Xo <.3X3X,X&X&X+XP > ; m XX3X3X3X3X3Xg.7 < 4 1.>X&X*X3X3X3X3X).r   4X4X4X4X4X4X4X4X4X4X4X4X",
"4X4X4X4X4Xo <.3X3X{.u.t.y.J.V.N.Q.3X3X3X3X3X3X#XZ.N.B.K.r.e.Y.;X3X3X3X).r   4X4X4X4X4X4X4X4X4X4X4X4X",
"4X4X4X4X4Xo <.3X3XOXU.P.I.[.3X3X}.a.i.i.i.i.w.v.3X3X3XR.L.L.T.;X3X3X3X).r   4X4X4X4X4X4X4X4X4X4X4X4X",
"4X4X4X4X4Xo <.3X3X2X;X;X;X1X3X3Xa.- + + + + X x .X3X3X,X;X;X:X3X3X3X3X).r   4X4X4X4X4X4X4X4X4X4X4X4X",
"4X4X4X4X4Xo <.3X3X3X3X3X3X3X3X3XG.) ~ ~ ~ ~ ! +.#X3X3X3X3X3X3X3X3X3X3X).r   4X4X4X4X4X4X4X4X4X4X4X4X",
"4X4X4X4X4Xo <.3X=X%X%X%X=X<X3X3X3X3X3X3X3X3X3X3X3X-X%X%X%X%X=X3X3X3X3X).r   4X4X4X4X4X4X4X4X4X4X4X4X",
"4X4X4X4X4Xo 2.|.Y N B B C d.3X3X3X3X3X3X3X3X3X3X3X4.N B B M / oX3X3X3X).r   4X4X4X4X4X4X4X4X4X4X4X4X",
"4X4X4X4X4Xo 2.'.g 1 3 3 5 =.).%X3X3X3X3X3X3X3X#X(.| 1 3 3 < N .X3X3X3X).r   4X4X4X4X4X4X4X4X4X4X4X4X",
"4X4X4X4X4Xo <.3X~.W.W.W.H.K a D.3X3X3X3X3X3X3Xk.0 ! !.W.W.E.(.<X3X3X3X).r   4X4X4X4X4X4X4X4X4X4X4X4X",
"4X4X4X4X4Xo <.-Xd.8.9.9.8.T Z Q.3X3X3X3X3X3X3Xn.n ( 0.9.9.8.l.=X3X3X3X).r   4X4X4X4X4X4X4X4X4X4X4X4X",
"4X4X4X4X4Xo 2._.r . o o + ;.-X<X3X3X3X3X3X3X3X-X-X .. o o   k  X3X3X3X).r   4X4X4X4X4X4X4X4X4X4X4X4X",
"4X4X4X4X4Xo <.oXo._ ' ' ] m.3X3X3X3X3X3X3X3X3X3X3Xg.` ' ' _ %.#X3X3X3X).r   4X4X4X4X4X4X4X4X4X4X4X4X",
"4X4X4X4X4Xo <.3X3X3X3X3X3X3X3X3X3X3X3X3X3X3X3X3X3X3X3X3X3X3X3X3X3X3X3X).p O 4X4X4X4X4X4X4X4X4X4X4X4X",
"4X4X4X4X4Xo <.3X3X3X3X3X3X3X3X3X3X3X3X3X3X3X3X3X3X3X3X3X3X3X3X3X3X3X3X#Xs.$.2 4X4X4X4X4 $ 4X4X4X4X4X",
"4X4X4X4X4Xo *.~.$X3X3X3X3X3X3X3X3X3X3X3X3X3X3X3X3X3X3X3X3X3X3X3X3X3X3X3X3Xc.t q 4X4X4Xr 8 4X4X4X4X4X",
"4X4X4X4X4X4X9 d F.3X3X3X3X3X3X3X3X3X3X3X3X3X3X3X3X3X3X3X3X3X3X3X3X3X3X3X3X@X/.} . X 3 p.7., 4X4X4X4X",
"4X4X4X4X4X4X@ 1 C.3X3X3X3X3X3X3X3X3X3X3X3X3X3X3X3X3X3X3X3X3X3X3X3X3X3X3X3X3X3X5.m M G ^.j.%   4X4X4X",
"4X4X4X4X4X4X$ 3 S.3X3X3X3X3X3X3X3X3X3X3X3X3X3X3X3X3X3X3X3X3X3X3X3X3X3X3X3X3X3X-X%X%X%X3Xh.&   4X4X4X",
"4X4X4X4X4X4X4X4XW $.$X3X3X3X3X3X3X3X3X3X3X3X3X3X3X3X3X3X3X3X3X3X3X3X3X3X3X3X3X3X3X3X XX.R 4X4X4X4X4X",
"4X4X4X4X4X4X4X4X  h `.%X3X3X3X3X3X3X3X3X3X3X3X3X3X3X3X3X3X3X3X3X3X3X3X3X3X3X3X3X3X3X).w   4X4X4X4X4X",
"4X4X4X4X4X4X4X4X4X4Xl +.3X3X3X3X3X3X3X3X3X3X3X3X3X3X3X3X3X3X3X3X3X3X3X3X3X3X3X3X3X3X_.t   4X4X4X4X4X",
"4X4X4X4X4X4X4X4X4X4X  T S.}.3X3X3X3X3X3X3X3X3X3X3X3X3X3X3X3X3X3X3X3X3X3X3X3X3X].Z.A.z.y   4X4X4X4X4X",
"4X4X4X4X4X4X4X4X4X4X4Xq 6 6.3X3X3X3X3X3X3X3X3X3X3X3X3X3X3X3X3X3X3X3X3X3X3X3X3X&.2 4 4 4X4X4X4X4X4X4X",
"4X4X4X4X4X4X4X4X4X4X4X4XX { <.>.q.=X3X3X3X3X3X3X3X3X3X3X3X3X3X3X3X3X3X@X7.,.2.^       4X4X4X4X4X4X4X",
"4X4X4X4X4X4X4X4X4X4X4X4X4X- X   z oX3X3X3X3X3X3X3X3X3X3X3X3X3X3X3X3X3X_.u   X X 4X4X4X4X4X4X4X4X4X4X",
"4X4X4X4X4X4X4X4X4X4X4X4X4X4X4X4Xh W Q W W W W W W W W W W W W W W W Q E 4X4X4X4X4X4X4X4X4X4X4X4X4X4X",
"4X4X4X4X4X4X4X4X4X4X4X4X4X4X4X4X4X                                      4X4X4X4X4X4X4X4X4X4X4X4X4X4X",
"4X4X4X4X4X4X4X4X4X4X4X4X4X4X4X4X4X4X4X4X4X4X4X4X4X4X4X4X4X4X4X4X4X4X4X4X4X4X4X4X4X4X4X4X4X4X4X4X4X4X",
"4X4X4X4X4X4X4X4X4X4X4X4X4X4X4X4X4X4X4X4X4X4X4X4X4X4X4X4X4X4X4X4X4X4X4X4X4X4X4X4X4X4X4X4X4X4X4X4X4X4X"
};
