/* XPM */
static char *result[] = {
/* columns rows colors chars-per-pixel */
"50 50 112 2 ",
"   c #010000",
".  c #0A0603",
"X  c #0E0804",
"o  c #100C00",
"O  c #191400",
"+  c #1D1008",
"@  c #251D00",
"#  c #23140A",
"$  c #29170B",
"%  c #2C190C",
"&  c #351E0F",
"*  c #361F11",
"=  c #381F10",
"-  c #2D2300",
";  c #342217",
":  c #3C2211",
">  c #41270F",
",  c #4B310D",
"<  c #412512",
"1  c #452A17",
"2  c #4C2B15",
"3  c #502D16",
"4  c #532F19",
"5  c #5B3912",
"6  c #563119",
"7  c #5B341A",
"8  c #63391F",
"9  c #6D3E1F",
"0  c #462E20",
"q  c #482F20",
"w  c #483020",
"e  c #553520",
"r  c #583620",
"t  c #5F3920",
"y  c #613A20",
"u  c #6A3E22",
"i  c #6E5404",
"p  c #755B03",
"a  c #7E5D00",
"s  c #6E451E",
"d  c #66481B",
"f  c #714E1B",
"g  c #7E4C1F",
"h  c #735118",
"j  c #7E5819",
"k  c #746300",
"l  c #7F6500",
"z  c #764321",
"x  c #794522",
"c  c #7D4824",
"v  c #7F4A29",
"b  c #814F1F",
"n  c #86531D",
"m  c #89551B",
"M  c #845919",
"N  c #8B5C1C",
"B  c #965E1A",
"V  c #806600",
"C  c #8F6900",
"Z  c #86600C",
"A  c #987000",
"S  c #95641A",
"D  c #99641A",
"F  c #976819",
"G  c #9C6B1D",
"H  c #A17503",
"J  c #A06F1E",
"K  c #AC7A13",
"L  c #B27812",
"P  c #814B27",
"I  c #814C28",
"U  c #8F532C",
"Y  c #90542D",
"T  c #B18300",
"R  c #BB8C00",
"E  c #BF840F",
"W  c #B79100",
"Q  c #B89100",
"!  c #B88511",
"~  c #BD8811",
"^  c #BA9211",
"/  c #C79F00",
"(  c #C19A0F",
")  c #D2950A",
"_  c #C3A10A",
"`  c #CBA40C",
"'  c #D3A800",
"]  c #D5AF0A",
"[  c #D1B106",
"{  c #DFB007",
"}  c #D7B109",
"|  c #DBB609",
" . c #DEBC08",
".. c #E8A705",
"X. c #E5A904",
"o. c #EFAE05",
"O. c #E3AD09",
"+. c #E5B304",
"@. c #EBB405",
"#. c #EABA01",
"$. c #F3BB03",
"%. c #FFBC00",
"&. c #ECC502",
"*. c #EDCB05",
"=. c #FFC400",
"-. c #F0CD05",
";. c #FECB00",
":. c #F2D400",
">. c #FED200",
",. c #FFDF00",
"<. c #FFE200",
"1. c None",
/* pixels */
"1.1.1.1.1.1.                                                                            1.1.1.1.1.1.",
"1.1.1.1.1.        .   .       .       .         .         .     .                 .       1.1.1.1.1.",
"1.1.1.1.      . < 8 8 8 y y y 8 8 8 8 8 8 8 8 8 8 8 8 8 8 8 y 8 8 8 8 9 u y 8 8 y < .       1.1.1.1.",
"1.1.1.1.      X 9 Y Y Y Y Y Y Y U Y Y Y U Y U U Y Y U U Y Y Y Y U U U Y Y U Y Y Y 8 X       1.1.1.1.",
"1.1.        * 4 9 c c c P b P P x x x c x c c x x x x x x x x c x x x x x P P P P z 4 *         1.1.",
"1.1.        u U b x x x x 9 x 9 x x x x 9 g z x x x x x x x s x x x x x 9 g 9 9 x x Y u         1.1.",
"1.1.  . 6 u x c x 9 x x x x 9 P x x x s 9 m } | | | | ` b z x x c x P 9 x x x g z x c x u 6 .   1.1.",
"1.1.  X z Y x x x x x x 9 x P 9 x z z x P D >.<.<.,.<.*.B g x x 9 x x x x x x x z x x x U z X   1.1.",
"      . 8 P x s x P 9 x x x g x g c s U ^ } ;.;.>.>.>.;.} ^ g x z x z x x g 9 x 9 b 9 x P 8 .       ",
"      . 7 x x x x 9 9 g s x 9 x 9 s x F :.<.;.;.;.;.;.;.<. .g x x x x s x 9 x x x 9 P x x 7 .       ",
"    + * 9 z x x x x P 9 x x x x x x z S #.>.;.;.;.;.;.;.>.{ n x x x x x x x x x x x s x x 9 & +     ",
"  . 6 z x x x x c 9 b P x x x x x x z F $.>.>.>.;.>.;.>.>.O.n x x x x x x x x x x P c x x x x 6 .   ",
"    % : : : : : : : : : : : : : = < = , p l V l l l l l V i > : : : : : : : : : : < = > : : : %     ",
"                  .                                                                                 ",
"                                                                                                    ",
"1.1.1.1.                                                                                    1.1.1.1.",
"1.1.1.1.                                                                                    1.1.1.1.",
"1.1.1.1.1.                                                                                1.1.1.1.1.",
"1.1.1.1.1.1.                                                                            1.1.1.1.1.1.",
"1.1.1.1.1.1.1.1.                                                                    1.1.1.1.1.1.1.1.",
"1.1.1.1.1.1.1.                                                                        1.1.1.1.1.1.1.",
"1.1.1.1.1.1.                                                                            1.1.1.1.1.1.",
"1.1.1.1.1.      . X . . .     . X X o X X X X X X X X X X X X X X X X X . . . . . .       1.1.1.1.1.",
"1.1.1.1.        $ : = : = & = : : < < < < < < < < < < < < < < < < < < < : : & = : $         1.1.1.1.",
"1.1.1.1.      X : 4 3 3 3 3 4 4 3 3 3 3 3 3 3 3 3 3 4 4 2 3 3 3 3 4 4 4 4 3 3 3 4 = X       1.1.1.1.",
"1.1.        & 2 2 2 3 3 3 3 3 3 3 3 3 3 3 3 3 3 3 3 4 2 3 3 3 3 3 3 2 3 3 2 3 3 3 2 2 &         1.1.",
"1.          : 3 3 3 4 2 3 3 3 3 3 3 3 3 3 3 4 2 3 3 3 3 3 3 3 3 3 3 2 3 3 3 3 3 3 3 3 :         1.1.",
"        $ & 2 3 3 2 4 4 2 3 3 3 3 3 3 3 3 3 2 3 3 3 2 3 3 3 3 3 3 3 3 3 3 3 3 3 3 3 3 2 & %         ",
"      . < 3 3 3 4 2 2 2 3 3 4 2 3 3 3 3 3 3 3 3 3 3 3 2 3 3 3 3 4 2 6 4 4 2 2 4 3 3 3 3 4 < X       ",
"    + % 2 2 3 3 2 4 2 6 3 3 2 4 3 3 4 2 2 3 3 3 3 3 3 3 3 2 3 3 2 2 2 2 4 2 4 2 2 3 3 3 4 2 & #     ",
"    : 4 2 2 3 3 4 2 2 2 3 3 4 2 3 3 3 2 4 3 2 4 3 3 3 2 3 2 2 3 2 4 4 2 2 3 2 4 2 2 3 3 2 2 3 :     ",
"  . 6 z z z z z z z x z s z z s z z z N _ [ [ [ [ [ [ [ [ _ N z z z z z z z z z z z z z z z z 6 .   ",
"  . r I I v I I I I v I v v I I I I v J *.<.<.<.:.:.,.<.<.*.J I I v v I v v v v P P P P P P I t .   ",
"  . 7 c c x c x x c c c c c c c x c x G *.<.>.&.k k &.>.,.*.G x c c x c c c x v x c c c x x c 7 .   ",
"  . 6 x x x z z z z z x x x x z z x z F *.,.;.#.- - #.;.,.*.D 9 x x z z x x z x f x x z z x x 4     ",
"  . < r y 7 r r r r t t t y 7 t t 8 r M O.;.;.+.- @ ' ;.;.+.M e t y y y y 7 t 8 y y t t r e r < .   ",
"    ; q w w 0 q q q w w w w w w q q q h X.%.=.@.- O / ;.%.X.h 0 w w w w w w w w w w q q q q w ;     ",
"  . 1 y y y y y y y y y t y y t y y t m X.%.=.$.A C X.=.%.X.m y t t t t y t y y y y y y y y y 1 .   ",
"    7 c x x x x x x x x x x x x x x 9 B ..%.%.%.%.=.%.%.%...B x x x x x x x x x x x x x x x c 6 .   ",
"  . 6 x x z z x z x z z f x x x x x x m L ~ ) ) ) ) ) ) ~ L m 9 x x x z x x s x x x z z x x x 6 .   ",
"  . 6 x 9 z z x x x x x z x x x 9 P 9 x P 9 x x x x c x x x x x x x x x 9 x x x z x z z 9 z x 4 .   ",
"  . Z ~ ! ! ! K s t t t y 8 t 8 y y u y y u y y y y y y y y y y y 8 8 y y y y y t s K ! ! ! ~ M X   ",
"  X W ;.;.=.;.+.d 0 q 0 w w 0 q q q q 4 q q q q w w w q 2 q q q 1 q q q q q q q 0 d +.;.=.;.;.W o   ",
"  o Q ;.;.;.;.+.f e r r e e 6 r e e r 7 r e e e r r e e e e r 7 e e e e r r r 7 r f +.;.;.;.>.Q X   ",
"  o W >.;.;.;.@.B x 9 g z x z x c x x c 9 b 9 b x x z x x x x P x x x x x x x P x N #.;.;.;.>.W o   ",
"  o Q ;.=.=.=.@.m x 9 9 z z 9 s 9 9 9 9 9 x 9 9 z 9 z z 9 s 9 9 z 9 x 9 s 9 9 9 9 m @.=.=.=.;.W o   ",
"  X R =.=.=.%.o.m 9 9 9 u u 9 9 9 9 9 9 9 9 9 9 9 9 9 9 9 9 9 9 9 u 9 9 9 9 9 u 9 m o.=.%.=.=.R o   ",
"  . V T T T L H 5 2 1 2 2 2 2 2 2 < 2 2 3 3 1 2 1 1 2 1 1 2 2 1 1 2 2 2 2 2 2 2 2 5 H T T T T a .   ",
"    .   . .   .   .       .       .       .         .         .           .         . . . . .       ",
"                                                                                                    "
};
