/* XPM */
static char *result[] = {
/* columns rows colors chars-per-pixel */
"50 50 116 2 ",
"   c #010000",
".  c #090502",
"X  c #0D0A00",
"o  c #150D05",
"O  c #1A0F07",
"+  c #1A0E08",
"@  c #191500",
"#  c #1E1900",
"$  c #1C1008",
"%  c #2C190E",
"&  c #361E0F",
"*  c #2A2100",
"=  c #322700",
"-  c #332900",
";  c #3C2D07",
":  c #3F3006",
">  c #322116",
",  c #3E2413",
"<  c #412614",
"1  c #452915",
"2  c #4D2C16",
"3  c #522E17",
"4  c #49301F",
"5  c #553017",
"6  c #55311A",
"7  c #5B341C",
"8  c #63391F",
"9  c #6D3E1E",
"0  c #703F1F",
"q  c #462E20",
"w  c #482F20",
"e  c #493020",
"r  c #533420",
"t  c #5A3621",
"y  c #5D3820",
"u  c #643C20",
"i  c #6A3E21",
"p  c #6A500E",
"a  c #7F5D00",
"s  c #79550E",
"d  c #664111",
"f  c #6B4510",
"g  c #664A10",
"h  c #74491E",
"j  c #6F5019",
"k  c #755318",
"l  c #7A5619",
"z  c #7E5918",
"x  c #754322",
"c  c #794421",
"v  c #7D4926",
"b  c #7C4728",
"n  c #7C4828",
"m  c #805F00",
"M  c #814F1F",
"N  c #83511D",
"B  c #8A561C",
"V  c #845A19",
"C  c #8C5A1B",
"Z  c #945D1A",
"A  c #936E00",
"S  c #977100",
"D  c #9E7F00",
"F  c #956017",
"G  c #936916",
"H  c #93621A",
"J  c #986319",
"K  c #9B6C1B",
"L  c #AD7F03",
"P  c #A57215",
"I  c #AE7914",
"U  c #A87A1A",
"Y  c #B27C14",
"T  c #804B27",
"R  c #864E29",
"E  c #894F2A",
"W  c #8B502B",
"Q  c #90542D",
"!  c #9F8000",
"~  c #AA8601",
"^  c #AE8A00",
"/  c #B48500",
"(  c #B18D00",
")  c #BC8B00",
"_  c #C4870F",
"`  c #D3940C",
"'  c #DE9E08",
"]  c #C18510",
"[  c #C4AC00",
"{  c #CBA40C",
"}  c #D1AB0B",
"|  c #D1B602",
" . c #E7A605",
".. c #EAA705",
"X. c #E5A805",
"o. c #E9A905",
"O. c #E3B205",
"+. c #EDB704",
"@. c #E5BC06",
"#. c #ECBA03",
"$. c #F3B204",
"%. c #F3BB00",
"&. c #FFBD00",
"*. c #DDC003",
"=. c #E4C305",
"-. c #E8C705",
";. c #EECD04",
":. c #F6C400",
">. c #FCC400",
",. c #F0CF04",
"<. c #FECB00",
"1. c #F5D502",
"2. c #FED000",
"3. c #FEDF00",
"4. c #FFE100",
"5. c None",
/* pixels */
"5.5.5.5.5.5.5.5.5.5.5.5.5.5.5.5.5.5.5.5.5.5.5.5.5.5.5.5.5.5.5.5.5.5.5.5.5.5.5.5.5.5.5.5.5.5.5.5.5.5.",
"5.5.5.5.5.5.5.5.5.5.5.5.5.5.5.5.5.5.5.5.5.5.5.5.5.5.5.5.5.5.5.5.5.5.5.5.5.5.5.5.5.5.5.5.5.5.5.5.5.5.",
"5.5.5.5.5.5.5.5.5.5.5.5.5.5.5.5.5.5.5.5.5.5.5.5.5.5.5.5.5.5.5.5.5.5.5.5.5.5.5.5.5.5.5.5.5.5.5.5.5.5.",
"5.5.5.5.5.5.5.5.5.5.5.5.5.5.5.5.5.5.5.5.5.5.5.5.5.5.5.5.5.5.5.5.5.5.5.5.5.5.5.5.5.5.5.5.5.5.5.5.5.5.",
"5.5.5.5.5.5.5.5.5.5.5.5.5.5.5.5.5.5.5.5.5.5.5.5.5.5.5.5.5.5.5.5.5.5.5.5.5.5.5.5.5.5.5.5.5.5.5.5.5.5.",
"5.5.5.5.5.5.5.5.5.5.5.5.5.5.5.5.5.5.5.5.5.5.5.5.5.5.5.5.5.5.5.5.5.5.5.5.5.5.5.5.5.5.5.5.5.5.5.5.5.5.",
"5.5.5.5.5.5.5.5.5.5.5.5.5.5.5.5.5.5.5.5.5.5.5.5.5.5.5.5.5.5.5.5.5.5.5.5.5.5.5.5.5.5.5.5.5.5.5.5.5.5.",
"5.5.5.5.5.5.5.5.5.5.5.5.5.5.5.5.5.5.5.5.5.5.5.5.5.5.5.5.5.5.5.5.5.5.5.5.5.5.5.5.5.5.5.5.5.5.5.5.5.5.",
"5.5.5.5.5.5.5.5.5.5.5.5.5.5.5.5.5.5.5.5.5.5.5.5.5.5.5.5.5.5.5.5.5.5.5.5.5.5.5.5.5.5.5.5.5.5.5.5.5.5.",
"5.5.5.5.5.5.5.5.5.5.5.5.5.5.5.5.5.5.5.5.5.5.5.5.5.5.5.5.5.5.5.5.5.5.5.5.5.5.5.5.5.5.5.5.5.5.5.5.5.5.",
"5.5.5.5.5.5.5.5.5.5.5.5.5.5.5.5.5.5.5.5.5.5.5.5.5.5.5.5.5.5.5.5.5.5.5.5.5.5.5.5.5.5.5.5.5.5.5.5.5.5.",
"5.5.5.5.5.5.5.5.5.5.5.5.5.5.5.5.5.5.5.5.5.5.5.5.5.5.5.5.5.5.5.5.5.5.5.5.5.5.5.5.5.5.5.5.5.5.5.5.5.5.",
"5.5.5.5.5.5.5.5.5.5.5.5.5.5.5.5.5.5.5.5.5.5.5.5.5.5.5.5.5.5.5.5.5.5.5.5.5.5.5.5.5.5.5.5.5.5.5.5.5.5.",
"5.5.5.5.5.5.5.5.5.5.5.5.5.5.5.5.5.5.5.5.5.5.5.5.5.5.5.5.5.5.5.5.5.5.5.5.5.5.5.5.5.5.5.5.5.5.5.5.5.5.",
"5.5.5.5.5.5.5.5.5.5.5.5.5.5.5.5.5.5.5.5.5.5.5.5.5.5.5.5.5.5.5.5.5.5.5.5.5.5.5.5.5.5.5.5.5.5.5.5.5.5.",
"5.5.5.5.5.5.5.5.5.5.5.5.5.5.5.5.5.5.5.5.5.5.5.5.5.5.5.5.5.5.5.5.5.5.5.5.5.5.5.5.5.5.5.5.5.5.5.5.5.5.",
"5.5.5.5.5.5.                                                                            5.5.5.5.5.5.",
"5.5.5.5.5.5.                                                      .                     5.5.5.5.5.5.",
"5.5.5.5.5.      . + + o o o + + o o o o + + o o + + o o o o + + $ + + + + + o o + .       5.5.5.5.5.",
"5.5.5.5.      . > x x x x x x x x x x x x x x x x x x x x x b x 0 0 0 0 x x x x x q         5.5.5.5.",
"5.5.5.5.      . w R E E E Q E Q W W W W W W W W W W W W n W E W W W W W W Q W Q W r . .     5.5.5.5.",
"5.5.        7 n 0 b c v c c c c b b c c v c c c c c c c b b x b v v c c c c c c b 0 n 7         5.5.",
"5.5.      . i E 0 c c c c c c 0 x x c c c c c x c x c x x x x b c 0 c c 0 c c c x x W i .       5.5.",
"5.5.  . < 7 c T c c c c c c c c x x c x c c c c c c c c c b x x c c c c c c c c b x c x 7 < .   5.5.",
"5.5.  . 8 W v c c c c 0 c c c c c c c c c c M N T N N M c c c c c c c c h 0 M 0 c c c c W i .   5.5.",
"      . 2 v c c c c c c c c c c c c c c x V @.;.;.1.;.-.B x h x c c c x c c 0 T c c c c c 7 .       ",
"      . 2 c c c c c c c c c c c x c c h T K 1.3.4.3.3.1.K M c c c c c c c c c 0 c c c c c 7 .       ",
"    & 3 9 c c c c c h c c c c c c c x H } =.,.2.2.2.<.,.=.{ B c c c c h c c 0 T c c c c h 9 3 &     ",
"    1 9 9 9 9 9 9 9 9 9 9 9 9 9 9 0 9 G ,.4.2.<.>.<.>.<.4.=.V 9 9 9 9 9 9 9 9 9 9 0 9 9 9 9 0 1     ",
"    . . o o o o $ $ $ $ $ $ $ $ O $ @ < | 4.2.<.<.<.<.<.4.| ; + $ $ $ $ $ $ $ $ O O X o + + o .     ",
"                                      @ [ 4.<.<.<.<.<.<.4.| #                                       ",
"    $ % , < 1 1 1 1 < , < < < , < < < p *.4.<.<.<.<.<.<.4.| g < < , , < < , < < 1 1 1 1 < < , %     ",
"    6 n n n v v v v v v v v v v v n n U 1.4.2.<.<.<.<.<.3.-.K T T v v n v v v v v v v v v v T 7 .   ",
"    6 T n n v v v v v v v v v v c v v K ;.3.2.<.! D >.<.4.-.K b b v v v v v v v v v v n v c v 6     ",
"    3 c c c c c h c c c x b c c x c x H -.4.<.>.- - :.2.3.-.H 0 c c c c c c c c c c c c c c c 5     ",
"    < y u u 7 t 7 y u u u u d 8 u u u V O.2.2.:.- - #.<.2.@.V 7 8 u u 8 u u u u 8 u u u y t y < .   ",
"    > e e e w e 4 4 w w e e e e w w w k  .>.<.:.- * #.<.&.o.l 4 e e e e e e e e e e e e e e e >     ",
"    < y y y y y y y y t t y y y t u t N  .&.>.&.S S %.&.&.o.V t y y 7 t t y t 7 t y y 7 y y y ,     ",
"    3 c c x c x c x x c x x x x c 0 c Z  .&.&.&.&.&.&.&.&...Q x c c c x c c c c c c x c c h n 5 .   ",
"  . 3 c x c c c c h c c c c c c c c c B ] ` '  .} ' ' ' ` ) C c c h c c c c c x h c x c c c c 5     ",
"    2 b x x x x c c c c c c c c c c c c c c c h v c c c c c c c c c c c c c c c c c x x x x x 3     ",
"    s Y I I I P h u u u u u u u u i u u u 8 u u 8 u u u i u u i u u 9 u u u u i u h P I I I Y s .   ",
"  . ~ <.:.:.<.O.k 4 w w w w w w w w w w e e 4 e 4 4 e e w w w w w w w w w w w w q h O.<.:.>.>.~ .   ",
"    ( 2.<.<.<.+.V r r r r r r r r t r t r r r r r 7 r 6 t r r t r r t r r r r t r k #.<.<.<.2.( .   ",
"    ^ 2.<.<.<.+.J c x x x c x 0 c 0 c 0 0 c x x x x x x 0 c 0 c x 0 0 c x h 0 0 x F +.<.<.<.2.( .   ",
"  . ( <.<.>.<.%.Z x 0 x c 0 c c c 0 0 c c 0 h x c x 0 h h x c 0 h 0 T 0 x x 0 c x Z +.<.<.<.<.( .   ",
"    / >.&.>.>.$.Z 9 9 9 9 9 9 9 9 9 9 9 0 i 9 9 9 i 9 9 i 0 9 9 9 9 0 0 9 0 9 9 9 C $.>.>.>.>./ .   ",
"  . m ) ) ) ) L f 2 2 2 3 2 2 2 3 2 2 2 2 3 2 2 3 2 2 2 2 2 2 2 2 2 2 2 2 2 2 2 2 d ~ ) ) ) _ m .   ",
"    X o o o o X X . . . . . . . . . . . . . . . . . . . . . . . . . . . . . . . . . o o o o o X     ",
"                                                                                                    "
};
