/* XPM */
static char *result[] = {
/* columns rows colors chars-per-pixel */
"47 49 110 2 ",
"   c #6E6F73",
".  c #6F7074",
"X  c #707175",
"o  c #75767A",
"O  c #77787D",
"+  c #797A7E",
"@  c #FC3E3D",
"#  c #F94847",
"$  c #FC4F4F",
"%  c #EE5C5A",
"&  c #FA5354",
"*  c #F25C5B",
"=  c #FA5D5F",
"-  c #DE726C",
";  c #DD7771",
":  c #D97E78",
">  c #EB6461",
",  c #E57371",
"<  c #328C29",
"1  c #59A254",
"2  c #2953B4",
"3  c #7B7C81",
"4  c #F27E80",
"5  c #7F8085",
"6  c #7F94C7",
"7  c #818286",
"8  c #84858A",
"9  c #87888D",
"0  c #88898E",
"q  c #8C8E93",
"w  c #8F9095",
"e  c #909197",
"r  c #93949A",
"t  c #97989E",
"y  c #98999F",
"u  c #9AB99D",
"i  c #9C9DA3",
"p  c #A0A2A7",
"a  c #A4A5AB",
"s  c #A7A8AE",
"d  c #ACADAF",
"f  c #ABACB3",
"g  c #AFB1B7",
"h  c #B5B1B7",
"j  c #B3B4BB",
"k  c #B7B8BF",
"l  c #D78B87",
"z  c #D7928F",
"x  c #D89290",
"c  c #DB9D9B",
"v  c #E58C91",
"b  c #E59297",
"n  c #E39398",
"m  c #D4A7A7",
"M  c #ECA0A5",
"N  c #E3A9A8",
"B  c #E9B7BD",
"V  c #E4BDBF",
"C  c #9AC59C",
"Z  c #AEC7B3",
"A  c #ADCFB0",
"S  c #B2C4B8",
"D  c #899BC9",
"F  c #8A9FD2",
"G  c #96A9D6",
"H  c #93A8DB",
"J  c #BBBCC3",
"K  c #ADB7D1",
"L  c #B2BAD2",
"P  c #A0B3E0",
"I  c #AABBE4",
"U  c #E8BCC2",
"Y  c #BFC0C7",
"T  c #BFC1C8",
"R  c #BFD2C6",
"E  c #C3C5CC",
"W  c #C7CBCF",
"Q  c #D4C5CC",
"!  c #DEC7CB",
"~  c #D2C8CF",
"^  c #DEC9CE",
"/  c #C7C8D0",
"(  c #CBCDD4",
")  c #D1CDD4",
"_  c #DCCBD0",
"`  c #CFD1D8",
"'  c #D1D2DA",
"]  c #DBD2DA",
"[  c #D6D8DF",
"{  c #E0C7CB",
"}  c #E5D5DB",
"|  c #D0E3D7",
" . c #D7D8E0",
".. c #DBDCE4",
"X. c #DEDFE8",
"o. c #D4DCF3",
"O. c #E7DCE3",
"+. c #DDE3E6",
"@. c #DFE1E9",
"#. c #E2E3EB",
"$. c #E5E7F0",
"%. c #E6E8F1",
"&. c #EBEDF5",
"*. c #EDEFF8",
"=. c #EDF2F7",
"-. c #EFF1F9",
";. c #F0F1F5",
":. c #F4F5FE",
">. c #FAFAFF",
",. c None",
/* pixels */
",.,.,.,.,.,.,.,.,.,.,.,.,.,.,.,.,.,.,.,.,.,.,.,.,.,.,.,.,.,.,.,.,.,.,.,.,.,.,.,.,.,.X . ,.,.,.",
",.,.,.,.,.,.,.,.,.,.,.,.,.,.,.,.,.,.,.,.,.,.,.,.,.,.,.,.,.,.,.,.,.,.,.,.,.,.,.,.,.,.+ + ,.,.,.",
",.,.,.,.,.,.,.,.,.,.,.,.,.,.,.,.,.,.,.,.,.,.,.,.,.,.,.,.,.,.,.,.,.,.,.,.,.,.,.,.X + j k + . ,.",
",.,.,.,.,.,.,.,.,.,.,.,.,.,.,.,.,.,.,.,.,.,.,.,.,.,.,.,.,.,.,.,.,.,.,.,.,.,.,.,.X + E / + . ,.",
",.,.,.,.,.,.,.,.,.,.,.,.,.,.,.,.,.,.,.,.,.,.,.,.,.,.,.,.,.,.,.,.,.,.,.,.,.,.,.,.. + ' ' 5 . ,.",
",.,.,.,.,.,.,.,.,.,.,.,.,.,.,.,.,.,.,.,.,.,.,.,.,.,.,.,.,.,.,.,.,.,.,.,.,.,.,.,.. 3 ' ' 3 . ,.",
",.,.,.,.,.,.,.,.,.,.,.,.,.,.,.,.,.,.,.,.,.,.,.,.,.,.,.,.,.,.,.,.,.,.,.,.,.,.,.,.. + ' ' 3 . ,.",
",.,.,.,.,.,.,.,.,.,.,.,.,.,.,.,.,.,.,.,.,.,.,.,.,.,.,.,.,.,.,.,.,.,.,.,.,.,.,.,.. 3 ' ' + . ,.",
",.,.,.,.,.,.,.,.,.,.,.,.,.,.,.,.,.,.,.,.,.,.,.,.,.,.,.,.,.,.,.,.,.,.,.,.,.,.,.,.  + ' ' 3   ,.",
",.,.,.,.,.,.,.,.,.,.,.,.,.,.,.,.,.,.,.,.,.,.,.,.,.,.,.,.,.,.,.,.,.,.,.,.,.,.,.,.e p [ ' + X ,.",
",.,.,.,.,.,.,.,.,.,.,.,.,.,.,.,.,.,.,.,.,.,.,.,.,.,.,.,.,.,.,.,.,.,.,.,.,.,.X o J ' #.' 3 X ,.",
",.,.,.,.,.,.,.,.,.,.,.,.,.,.,.,.,.,.,.,.,.,.,.,.,.,.,.,.,.,.,.,.,.,.,.,.,.,.X o J [ #.' + X ,.",
",.,.,.,.,.,.,.,.,.,.,.,.,.,.,.,.,.,.,.,.,.,.,.,.,.,.,.,.,.,.,.,.,.,.,.,.,.,.X o J [ #.' 3 X ,.",
",.,.. X X X X ,.,.,.,.,.,.,.,.,.X X X X X ,.,.,.,.,.,.,.,.,.,.,.,.,.,.,.,.,.. o E [ a y ,.,.,.",
",.,.X X X X o X ,.,.,.,.,.,.,.o X X X X X ,.,.,.,.,.,.,.,.,.,.,.,.,.,.,.,.,.X + / [ 7   ,.,.,.",
",.,.. + k Y j s o ,.,.,.,.,.. a E T Y 8   X X ,.,.,.,.,.,.,.,.,.,.,.,.,.,.X a k ....7   ,.,.,.",
",.,.X 3  .#.' J + + ,.,.,.+ O k O.#.#.r o X . ,.,.,.,.,.,.,.,.,.,.,.,.,.X X j [ X.[ 5   ,.,.,.",
",.,.. 5  .@.' ` / ` #...' ( ( b = B @.` E 5 . . . . 9 ( ' ` ' ' a   . . X X j ' [ ( 7   ,.,.,.",
",.,.. 3 ` X.`  .#.#.#...' ] } , # M } #...9 . + 3 3 w ` ' ' ' ' s 3 3 3 3 3 J ' / E 3 X ,.,.,.",
",.,.  3 /  .X.X.' ' ' ' ' b $ > - * & U ..8 + k W ` ' @...` [ #...' / E E E ( ( w 3 ,.,.,.,.,.",
",.,.. 3 E ' O.X.' ` ' ` ' b $ , l * # U ..8 3 / [ #.#.#...` [ X.O.X. .' ' ' ' ( 8   ,.,.,.,.,.",
",.,.  3 / ' ' ' ' ` ( ' ' ) Q ~ ~ z ; { ..9 3 ' #.#.X.' ` ` ' ' ' ' ' ' ' ` ` ( 8   ,.,.,.,.,.",
",.,.9 e / ' ` ' ......[ ' ( ' ` ' m z ^  .8 3 ' O.X...` ` ` ' ` ` ' ` ' ` ' ' ( 8   ,.,.,.,.,.",
",.,.` ` ` ` ' ..-.:.:.#.` ' ` ' ' ( ) ' ( 5 + ' @.` ` ' ` ' ` ` ' ` ' ` ' ` ' ( 8   ,.,.,.,.,.",
",.,.f j ` W u Z :.:.:.#.' ' ' ' ` ` `  .` i i  .@.' ` ' ` ' ` ' ` ` ` ` ' ` J f 7 . ,.,.,.,.,.",
"X X   3 / S < 1 =.:.:.&.' ' ' ' ` ` ` X.@. .` O.@.' ' ` ' ` ' ` ' ` ' ` ' ) q   ,.,.,.,.,.,.,.",
",.o t p ..R < 1 =.:.:.$.' K D L ` ` ` @.@.g f ..@.' ` ' ` ' ` ' ` ` ` ' [ [ q   ,.,.,.,.,.,.,.",
",.,.' [ :.| < 1 =.:.:.$.' 6 2 D ' ` ` @.X.8 3 ' @.' ' ` ` ` ` ` ' ` ` ' X.X.q   ,.,.,.,.,.,.,.",
",.o y s #.+.C A :.:.:.*.%.F 2 G %. .( j p O 3 /  .' ` ' ` ` ' ` ' ` ' ' ..@.w . X ,.,.,.,.,.,.",
"X X   3 ' $.:.:.:.:.:.:.>.H 2 P >.X.( 9     3 E ' ` ' ` ' ` ` ` ` ' ( ' ..@.r . X X ,.,.,.,.,.",
",.,.,.,.' ..&.} N V &.&.:.o.I o.:.#. .q o f J ) ' ` ` ` ' X. .` ' `  ...@.@.E j 5 . ,.,.,.,.,.",
",.,.,.,.' ' #.^ : c @.&.:.>.>.:.:.%...q O ` #.' ` ' ` ` [ #.X.' ` ` ..#.#.#.#.X.0 . ,.,.,.,.,.",
",.,.,.,.,.,.[ ] ^ } =.:.:.:.:.*.$.f q 3 o ( @. .` ` ' X.@.#.@...X...@.#.#.#.#...9 . ,.,.,.,.,.",
",.,.,.,.,.,.` ' @.%.:.:.:.-.:.%.O.i o o 3 ( @. .` ( ` @.X.......X.@.#.#.#.@.@.+.9   ,.,.,.,.,.",
",.,.,.,.,.,.,.,.' [  . . ...$...' E J / ` @.@.@.` 0 r ` J 9 8 8 g $.#.#.#.#.#...9   . . ,.,.,.",
",.,.,.,.,.,.,.,.W / ' ' ' ..#. .` ' [ X.$.@.#.@.` 7 q ` j X     p ' ..#.#.@.#.+.r 3 o . ,.,.,.",
",.,.,.,.,.,.,.,.+ i @.@.@.#.#. .' ' ' &.:.#.X.[ ' / / ' j X X X o 3 j $.#.@.#.@. .( 5 . ,.,.,.",
",.,.,.,.,.,.,.,.3 p #. .(  .#. .' '  .*.:.#...E T ` ' ' j o . X . . a ( ..#.#.#.#. .7 . ,.,.,.",
",.,.,.,.,.,.,.,./ ' $.J o f #. .` $.:.:.:...E 8 o ,.,.,.,.,.,.X . X o + J #.#.@.#. .7 . ,.,.,.",
",.,.,.,.,.,.,.,. .' E p   s #.X...&.:.&.&.J j 3   ,.,.,.,.,.,.X X X . X k $.$.%.#. .7 . ,.,.,.",
",.,.,.,.,.,.' ' #.E o X   a #.*.:.:.:.X.( 8 X ,.,.,.,.,.,.,.,.,.,.,.X X J #.:.:.&. .8 . ,.,.,.",
",.,.,.,.,.,.g h J p X 3 r J #.*.:.:.&.J f 5   ,.,.,.,.,.,.,.,.,.,.,.,.X a J T E J j 5 . ,.,.,.",
",.,.,.,.,.,.X X   . . t ( ..@.*.:.%.#.q   ,.,.,.,.,.,.,.,.,.,.,.,.,.,.,.X X X . . X ,.,.,.,.,.",
",.,.,.,.,.,.,.X . .   i ..#.=.&.&.E f 0 ,.,.,.,.,.,.,.,.,.,.,.,.,.,.,.,.,.. X X X ,.,.,.,.,.,.",
",.,.,.,.,.,.,.,.,.,.X i #.;.>.;.#.r   ,.,.,.,.,.,.,.,.,.,.,.,.,.,.,.,.,.,.,.,.,.,.,.,.,.,.,.,.",
",.,.,.,.,.,.,.,.,.,.,.e p a d a p q ,.,.,.,.,.,.,.,.,.,.,.,.,.,.,.,.,.,.,.,.,.,.,.,.,.,.,.,.,.",
",.,.,.,.,.,.,.,.,.,.,.,.    X   . ,.,.,.,.,.,.,.,.,.,.,.,.,.,.,.,.,.,.,.,.,.,.,.,.,.,.,.,.,.,.",
",.,.,.,.,.,.,.,.,.,.,.,.,.,.,.,.,.,.,.,.,.,.,.,.,.,.,.,.,.,.,.,.,.,.,.,.,.,.,.,.,.,.,.,.,.,.,.",
",.,.,.,.,.,.,.,.,.,.,.,.,.,.,.,.,.,.,.,.,.,.,.,.,.,.,.,.,.,.,.,.,.,.,.,.,.,.,.,.,.,.,.,.,.,.,."
};
