/* XPM */
static char *result[] = {
/* columns rows colors chars-per-pixel */
"47 49 107 2 ",
"   c #6E6F73",
".  c #6F7074",
"X  c #707175",
"o  c #74757A",
"O  c #77787C",
"+  c #797A7E",
"@  c #FC4444",
"#  c #F54F4E",
"$  c #FA4C4D",
"%  c #F94F50",
"&  c #ED5F5D",
"*  c #F35452",
"=  c #F45D5F",
"-  c #DC766F",
";  c #DA7B74",
":  c #E96460",
">  c #E27E7D",
",  c #F27678",
"<  c #2D8A24",
"1  c #62A75E",
"2  c #D9817B",
"3  c #2752B4",
"4  c #2A54B4",
"5  c #2F58B6",
"6  c #7D7E82",
"7  c #7F8085",
"8  c #778EC5",
"9  c #788FC6",
"0  c #7C92C7",
"q  c #818286",
"w  c #84858A",
"e  c #87888D",
"r  c #88898E",
"t  c #8D8E94",
"y  c #8F9096",
"u  c #919297",
"i  c #95969B",
"p  c #98999F",
"a  c #89B28A",
"s  c #9B9CA1",
"d  c #9FA0A6",
"f  c #A0A1A7",
"g  c #A3A5AB",
"h  c #A7A8AE",
"j  c #A8A9AF",
"k  c #B4A8AE",
"l  c #ACADB4",
"z  c #AFB1B7",
"x  c #B0B1B7",
"c  c #B4B5BC",
"v  c #D7918D",
"b  c #D8918F",
"n  c #D69A99",
"m  c #EA8185",
"M  c #E8868A",
"N  c #E39599",
"B  c #E09C9A",
"V  c #DCA5A4",
"C  c #D4A9AA",
"Z  c #DCACB2",
"A  c #DAB3B9",
"S  c #E2B8B9",
"D  c #A6C5AA",
"F  c #ACCEAF",
"G  c #BACFBF",
"H  c #BAD0BF",
"J  c #92A2CB",
"K  c #A1ADCF",
"L  c #BBBCC4",
"P  c #AFB8D2",
"I  c #A1B1DB",
"U  c #ABBCE4",
"Y  c #D5BDC2",
"T  c #BFC0C7",
"R  c #BFC0C8",
"E  c #BAD0C0",
"W  c #BFD9C5",
"Q  c #BECBEB",
"!  c #C4C5CC",
"~  c #C6C8CF",
"^  c #D2C5CB",
"/  c #DBC6CB",
"(  c #C6D1CE",
")  c #C7C9D1",
"_  c #CBCCD4",
"`  c #D2CDD5",
"'  c #DECED5",
"]  c #CFD1D9",
"[  c #D1D2DA",
"{  c #D6DFDE",
"}  c #E7C8CF",
"|  c #E5D2D8",
" . c #D7D8E0",
".. c #DBDCE4",
"X. c #DEDFE8",
"o. c #D3DAF0",
"O. c #E6DDE3",
"+. c #DFE1E9",
"@. c #E2E4EC",
"#. c #E6E7F0",
"$. c #E6E8F1",
"%. c #EAECF4",
"&. c #E0E6F8",
"*. c #EEF0F9",
"=. c #F3F5FE",
"-. c #F7F9FF",
";. c None",
/* pixels */
";.;.;.;.;.;.;.;.;.;.;.;.;.;.;.;.;.;.;.;.;.;.;.;.;.;.;.;.;.;.;.;.;.;.;.;.;.;.;.;.;.;.;.. . ;.;.",
";.;.;.;.;.;.;.;.;.;.;.;.;.;.;.;.;.;.;.;.;.;.;.;.;.;.;.;.;.;.;.;.;.;.;.;.;.;.;.;.;.;.;.+ + ;.;.",
";.;.;.;.;.;.;.;.;.;.;.;.;.;.;.;.;.;.;.;.;.;.;.;.;.;.;.;.;.;.;.;.;.;.;.;.;.;.;.;.;.X o z L q . ",
";.;.;.;.;.;.;.;.;.;.;.;.;.;.;.;.;.;.;.;.;.;.;.;.;.;.;.;.;.;.;.;.;.;.;.;.;.;.;.;.;.X X L _ q . ",
";.;.;.;.;.;.;.;.;.;.;.;.;.;.;.;.;.;.;.;.;.;.;.;.;.;.;.;.;.;.;.;.;.;.;.;.;.;.;.;.;.X X L ) q . ",
";.;.;.;.;.;.;.;.;.;.;.;.;.;.;.;.;.;.;.;.;.;.;.;.;.;.;.;.;.;.;.;.;.;.;.;.;.;.;.;.;.X o L ] q X ",
";.;.;.;.;.;.;.;.;.;.;.;.;.;.;.;.;.;.;.;.;.;.;.;.;.;.;.;.;.;.;.;.;.;.;.;.;.;.;.;.;.X o ~  .w X ",
";.;.;.;.;.;.;.;.;.;.;.;.;.;.;.;.;.;.;.;.;.;.;.;.;.;.;.;.;.;.;.;.;.;.;.;.;.;.;.;.;.X o ~ ..w X ",
";.;.;.;.;.;.;.;.;.;.;.;.;.;.;.;.;.;.;.;.;.;.;.;.;.;.;.;.;.;.;.;.;.;.;.;.;.;.;.;.;.X o ~  .w . ",
";.;.;.;.;.;.;.;.;.;.;.;.;.;.;.;.;.;.;.;.;.;.;.;.;.;.;.;.;.;.;.;.;.;.;.;.;.;.;.;.;.X o ~ ..w . ",
";.;.;.;.;.;.;.;.;.;.;.;.;.;.;.;.;.;.;.;.;.;.;.;.;.;.;.;.;.;.;.;.;.;.;.;.;.;.;.;.;.X o ~ ..w . ",
";.;.;.;.;.;.;.;.;.;.;.;.;.;.;.;.;.;.;.;.;.;.;.;.;.;.;.;.;.;.;.;.;.;.;.;.;.;.;.;.;.X o ) ..w . ",
";.;.;.;.;.;.;.;.;.;.;.;.;.;.;.;.;.;.;.;.;.;.;.;.;.;.;.;.;.;.;.;.;.;.;.;.;.;.;.;.;.X o ~ ..w X ",
";.;.;.;.;.;.;.;.;.;.;.;.;.;.;.;.;.;.;.;.;.;.;.;.;.;.;.;.;.;.;.;.;.;.;.;.;.;.;.;.;.X o ~ ..w X ",
";.;.;.;.;.;.;.;.;.;.;.;.;.;.;.;.;.;.;.;.;.;.;.;.;.;.;.;.;.;.;.;.;.;.;.;.;.;.;.;.;.X o ~ ..w . ",
";.;.;.;.;.;.;.X X X X X ;.;.;.;.;.;.;.;.;.X X X X X ;.;.;.;.;.;.;.;.;.;.;.;.;.;.;.  o ~  .w . ",
";.;.;.;.;.;.;.X X o O O o ;.;.;.;.;.;.;.o o O o . X ;.;.;.;.;.;.;.;.;.;.;.;.;.;.;.O + ) ..w X ",
";.;.;.;.;.;.;.. 6 ! ) L l X ;.;.;.;.;.. g L L L 7   . X ;.;.;.;.;.;.;.;.;.;.;.;.[ _ _ .. .w X ",
";.;.;.;.;.;.;.. q  .@.[ c 6 q ;.;.;.q 6 k / ` ] t 6 . X ;.;.;.;.;.;.;.;.;.;.;.[ [ [  .+. .w . ",
";.;.;.;.;.;.;.. q  .+.[ [ [  .@...[ [ [ m % Z ] ) L 6         t ] ] [ [ [ [ [ ] [ p q R _ q . ",
";.;.;.;.;.;.;.. q  ...[  .@.+.+. .[ ' } , @ N Y ` _ 6 X 6 7 q s [ [ [ ] ] ` [ [ [ s w L _ q . ",
";.;.;.;.;.;.;.. 7 ) [ @...[ [ [ [ ] M @ : - * $ A ) 7 6 ! _  . .@. .[ [ ] [ [ ..@.+. .] ) q . ",
";.;.;.;.;.;.;.X 7 ) [ +. .[ [ [ ] [ N = > v & # A ) 7 6 _  .@.+.O. .[ ] [ ] ]  ...+.+.{ _ w . ",
";.;.;.;.;.;.;.  6 ) [ [ [ [ _ [ [ ] ] ` ` ` v ; ^ ) 7 7 [ @.@.X.[ [ ] [ ] [ [ ] [ [ ] +...w . ",
";.;.;.;.;.;.;.y s _ [ [ [ ....+.{ ] ] ] ] ] C n ^ ) 7 7 [ @... .] [ ] [ ` ] ] [ [ [ [  .[ w . ",
";.;.;.;.;.;.;.[ [ [ [ [ X.=.=.=.O.[ ] [ ] ] ] ] [ ~ 6 7  .@.[ [ [ ] [ ] [ ] ] ` ] [ [ [ _ q . ",
";.;.;.;.;.;.;.g z [ ) a D =.=.=.#.[ [ [ [ ] [ ] [ [ g g  .@.[ [ ] [ ] ] ] [ ] [ ] [ [ [ ) q . ",
";.;.;.;.;.. .   q  .E < 1 =.=.=.#.[ [ ` [ [ ] [ @.@.[ [ @...[ [ [ ] [ ` [ ] [ ] ] ] [ [ ) q . ",
";.;.;.;.;.;.6 s l X.E < 1 =.=.=.#.] K 8 P [ [ [ O. .h h  .+.[ [ ] [ ] [ ] [ [ [ ] [ ] ] _ q . ",
";.;.;.;.;.;.;.[  .O.E < 1 =.=.=.O. .8 3 J [ [ [ X.{ q 6  .+.[ [ [ ] [ ] ] ] [ [ ] ] [ ] ) q . ",
";.;.;.;.;.X O y d ..{ F W =.=.=.#.[ 8 3 I %. ._ h i o 6 ] [ ` ] [ [ [ ] ]  ...[ [ ] ] ..[ e . ",
";.;.;.;.;.X X   7 { $.=.=.=.=.=.#.[ 0 5 U -..._ w   X q ) ] [ ] ] [ ] ] [  .@. .] ] ] O. .w . ",
";.;.;.;.;.;.;.;.;.[  .$.| B S %.$.%.o.Q &.-.#. .r o l L _ [ [ ] ] [ ] { ..+.#. .] ] ] [ ] q X ",
";.;.;.;.;.;.;.;.;.[ [ @./ 2 V @.%.-.-.-.-.*.+.{ e O R ] ] [ ] ] [ [ `  .@.+.+. .[ [ ] _ ! q X ",
";.;.;.;.;.;.;.;.;.;.;.[ [ ' O.=.=.-.=.=.%.+.d 7 o O ! ] [ [ [ [ O...[  .@.@.@.+.+. ._ i q ;.;.",
";.;.;.;.;.;.;.;.;.;.;.]  .+.$.*.*.*.*.*.$.+.s 6 6 w ! ] [ [ [ [  .[  .[  . .+.+.+. ._ e   ;.;.",
";.;.;.;.;.;.;.;.;.;.;.;.;.[ [  .{ [  .[ [ [ ) ~ ! ~ ] ] ] ] [ L 6 s +.L 6 g ] [ [ [ _ e   ;.;.",
";.;.;.;.;.;.;.;.;.;.;.;.;.[ R Y ) [ ) Y ! T T R _ ] ] [ [ [ [ L w g @.L 7 l  .] [ ~ L e   ;.;.",
";.;.;.;.;.;.;.;.;.;.;.;.;.;.;.6 j @.j o o o O + L [ [ [ @...[ [ ..X.#.X. .+.+. .] u O ;.;.;.;.",
";.;.;.;.;.;.;.;.;.;.;.;.;.;.;.  s ! i X X X X X h L [  .@.X. . .@. .R ] #.+.#. .[ t   ;.;.;.;.",
";.;.;.;.;.;.;.;.;.;.;.;.;.;.;.;.;.o .       . . X 6 ] @.+.@.@.@.@.L X g @.@.@. .] t   ;.;.;.;.",
";.;.;.;.;.;.;.;.;.;.;.;.;.;.;.;.;.. t s s p s i + 6 [ %.$.$.@.@.@.L   f @.@.@.+...i   ;.;.;.;.",
";.;.;.;.;.;.;.;.;.;.;.;.;.;.;.;.;.;.@.@.@.@.@.+.r + @.=.=.=.@.@.@.L   d @.@.@.*.=.s   ;.;.;.;.",
";.;.;.;.;.;.;.;.;.;.;.;.;.;.;.;.;.;.z l l l z l w + z ! %.=.%.$.@._ h j l l l c c i   ;.;.;.;.",
";.;.;.;.;.;.;.;.;.;.;.;.;.;.;.;.;.;.. . . . . X ;.;.. q $.=.-.=.@.@.$.c   X X     ;.;.;.;.;.;.",
";.;.;.;.;.;.;.;.;.;.;.;.;.;.;.;.;.;.;.;.;.;.;.;.;.;.. q $.=.%.$.@._ g i ;.;.;.;.;.;.;.;.;.;.;.",
";.;.;.;.;.;.;.;.;.;.;.;.;.;.;.;.;.;.;.;.;.;.;.;.;.;.. q $.*.@.+.@.L .   ;.;.;.;.;.;.;.;.;.;.;.",
";.;.;.;.;.;.;.;.;.;.;.;.;.;.;.;.;.;.;.;.;.;.;.;.;.;.;.;.s s i i i u ;.;.;.;.;.;.;.;.;.;.;.;.;.",
";.;.;.;.;.;.;.;.;.;.;.;.;.;.;.;.;.;.;.;.;.;.;.;.;.;.;.;.    .       ;.;.;.;.;.;.;.;.;.;.;.;.;."
};
