/* XPM */
static char *c744918f71214e37fe9cf7f92277145aqBUwzin7ol0JQo7g[] = {
/* columns rows colors chars-per-pixel */
"50 50 147 2 ",
"   c #26251A",
".  c #2B271B",
"X  c #2A2A1C",
"o  c #252422",
"O  c #292724",
"+  c #2B2A26",
"@  c #2D2D29",
"#  c #322D27",
"$  c #312E2C",
"%  c #2F302A",
"&  c #33312D",
"*  c #38352D",
"=  c #3A392D",
"-  c #2F2D31",
";  c #322E31",
":  c #332E3B",
">  c #353432",
",  c #393633",
"<  c #3C3B35",
"1  c #373538",
"2  c #3B3739",
"3  c #3D3D38",
"4  c #423D2E",
"5  c #413E36",
"6  c #413D39",
"7  c #44432F",
"8  c #444336",
"9  c #494436",
"0  c #4B4837",
"q  c #45423B",
"w  c #4A463C",
"e  c #4D493D",
"r  c #524D3D",
"t  c #54503E",
"y  c #4C4643",
"u  c #4D4A42",
"i  c #4E4E49",
"p  c #524D43",
"a  c #514E49",
"s  c #555145",
"d  c #5A5545",
"f  c #5C5945",
"g  c #54524A",
"h  c #5A554B",
"j  c #5D5A4C",
"k  c #595450",
"l  c #5E5B52",
"z  c #625C4D",
"x  c #625E51",
"c  c #65614D",
"v  c #6B654E",
"b  c #6A684E",
"n  c #656153",
"m  c #6C6554",
"M  c #6E6955",
"N  c #656359",
"B  c #6C655A",
"V  c #6E695A",
"C  c #706756",
"Z  c #716A56",
"A  c #71675C",
"S  c #736C5A",
"D  c #786F5E",
"F  c #747256",
"G  c #75715C",
"H  c #78735F",
"J  c #6A6661",
"K  c #756D61",
"L  c #786F60",
"P  c #767262",
"I  c #7A7562",
"U  c #7E7B64",
"Y  c #7A7768",
"T  c #7E7D6A",
"R  c #817E66",
"E  c #817C69",
"W  c #837E6A",
"Q  c #847F69",
"!  c #857E6B",
"~  c #847F6B",
"^  c #817E6A",
"/  c #7E8164",
"(  c #838067",
")  c #84826B",
"_  c #878668",
"`  c #85856B",
"'  c #86846B",
"]  c #82816D",
"[  c #86816E",
"{  c #87826E",
"}  c #84836B",
"|  c #88876B",
" . c #8B8A6E",
".. c #8A896E",
"X. c #858572",
"o. c #888772",
"O. c #8D8674",
"+. c #888773",
"@. c #8B8B71",
"#. c #8E8A71",
"$. c #8E8973",
"%. c #8C8A73",
"&. c #8B8A76",
"*. c #8D8B74",
"=. c #8C8B77",
"-. c #8F8D74",
";. c #8E8C77",
":. c #8F8F77",
">. c #8B8A74",
",. c #828278",
"<. c #898579",
"1. c #8F8979",
"2. c #8E8D78",
"3. c #8B897D",
"4. c #8F8E7C",
"5. c #8E8C79",
"6. c #918B73",
"7. c #908B75",
"8. c #908B77",
"9. c #918D74",
"0. c #908E75",
"q. c #918C76",
"w. c #908E77",
"e. c #918E76",
"r. c #908E79",
"t. c #908D7A",
"y. c #908F7A",
"u. c #918F7A",
"i. c #928D7C",
"p. c #8F9275",
"a. c #8F9179",
"s. c #8F9179",
"d. c #939178",
"f. c #92907B",
"g. c #949279",
"h. c #91907C",
"j. c #92917D",
"k. c #93927E",
"l. c #95907C",
"z. c #93917D",
"x. c #98937D",
"c. c #96997E",
"v. c #959482",
"b. c #9C9781",
"n. c #979984",
"m. c #9D9B84",
"M. c #9F9E89",
/* pixels */
"$.7.f.;.;.y.$.>.c.e o O l M.| p.$.9.:.9.p.y.n.h X @._ m 5.f. .j.a.o.4.<.X 0 I O.6.w.y.l.v.s.&.n.g + ",
"$.T G U E Q Q ( ` n y + e T H E U [ U S P P P e % &.G n P G ( Y P } I V p x A ! ! ! H V S P P P u + ",
"f.G e n A M m M c S B $ < t b V M D f r w w p < ; v.K e q d G e r m z r V D m Z M n d e p u w e 3 O ",
"j.G 0 m P D S S S P S 8 j V G m M Z A D h p g , ; * < g B V S P M S A x D L S C D S m m V h u h 3 O ",
"=.P t V D S S S C M A r x K S S D S Z G z h h 6 & = r h B I m M H A S I m C S Z M S M G H x s h < @ ",
"4.[ M H S S S A L Z m d x I S m M D S Z P N s < > V I S K A Z S S S Z H Z S S H M F Z m S S c s < % ",
"I H M A A S A S A A S m h h M G S K n t z j g 5 @ T Z d V S Z Z S S Z S Z Z M V S S S M S H m s < % ",
"S Z S S S S Z Z K M M D m s M F S B n u u e g = & &.H p A D C D Z Z S Z S S S S V V H D Z A n d 3 % ",
"f.E m Z A S M S V S S S S Z S Z G p i h t e g 2 & ` U Z A Z F S Z S S S S Z Z S S M Z M G j e a < + ",
">.E Z S V H D S S Z S Z S S S A F p u i j z s 2 % o./ V P Z v I S S S Z S S S S A S G Z V d p g 3 + ",
":.E m S S S V M S Z S S S Z S S M j k g m S s < @ =.( c K I m L A Z S Z S A Z Z Z S G M S j p g < + ",
"w.S r m S A M S Z A S Z S Z S Z M m V N G m s 3 * X.V d A C m D Z S S S Z S S S S Z S V V j p p 3 + ",
"x.H f M H V M H S S Z S Z S Z A Z H D S m d h < & &.G e p z I A Z S S S S Z Z S S S A M n h p p 3 + ",
">.Q V H S S Z M Z S A S Z S S S S S Z V j w h > @ ,.T q # 4 A A S S Z S S S S Z Z G A m p e e g 3 + ",
"M H m S V S S S S S S S S Z S S D C M M z u h , ; & X % l V S D A Z S Z S Z S A M S S n p p p g 3 + ",
"H H M P S S V A S Z S Z S S S Z K M H S N g a 3 > 5 e q J H m D S Z S S S S S S Z G A M h h h g 3 + ",
"p.E Z Z Z S V G M Z S Z S S S S N A Z S H V g < % V Z H S F Z D S Z S A Z Z S Z Z Z Z Z S S Z d < + ",
"f.( Z S S K j s d m H M A S z p j M D Z f s g 3 > / / S A Z Z V S S Z S S S S P Z D Z Z A x d p < % ",
";.T M Z A V h i e z H A D V p p p j M S d u k > ; v.T l A H D S Z Z M H I M x n m G C D K j y k 3 % ",
"@.E M A m p p i g n P m S D p h s u j S N i i 3 > / K w A S v A Z S Z M S n p s f S A S A z a a < + ",
" .U d G V e i s e n V f c P s e p w s h s w > > > X.H 0 A H Z H G S n d j s u u f G H n j h a , > + ",
"p.G 7 x n e s u s j n t j N d i g p k u u u + @ % X.H w x C b m n N j u i s i a j m m n s e 6 + % + ",
"v.Y e k l a s i h s g p g g i g i i g u g i > @ < o.P u k d s g h s s i i s a i g i p h p < $ - % + ",
"g u < = > 3 < 3 * < < 2 3 3 < = 3 < , < 3 > % @ + x e > 3 , = 3 3 , 3 , 3 , 3 3 , q , < 3 $ @ @ % + ",
"% % & > $ & > $ & & % @ > - + : ; 2 & $ > & 2 @ : + > > : @ > - > - 1 2 - - > ; $ > - @ 1 > % > % + ",
"X.X.=.X.T V ^ +.X.} &.&.&.X.d h  .' | @. .@.&.d + / &./ v.U b X.@. .( ( ..o. .` '  .>.p.p.` ` p.i + ",
"p.( G T U M U E E U ( H G P c M [ E T H V G Y 0 % v./ N Y S f G I [ ( Q ` Y G T Q ' G V G P G Y i + ",
"4.S 9 V S A A Z M V m e r e n K V S l u u u a 2 @ / P i y p p y p N V S V h s m V N g y u i y u 3 + ",
"i.K 9 S S K S S D D S m D m K S A H Z c n s g 3 & >.Z e B m M N Z Z Z Z F M m G D Z M M m s e h < % ",
"w.I f Z S M Z A Z m A S A I A Z Z b Z G d e i = &  .F r K S G H G M Z Z Z Z Z Z Z Z Z G G n d s 3 + ",
"e.R m Z S Z Z Z D Z Z S c Z m G S M H S j u g 3 @ o.O.D K m C A A S S H S A D A S A Z Z S P N i 3 + ",
"1.E V K V I S Z B D M L K C L A Z S Z V V x g = * o.R x K H C D Z G A Z S S Z S S Z Z S V S M g 3 + ",
"+.H S M S Z S S S S S Z S Z S S S Z D S Z m g 6 * T T B K A S A Z S Z S S S S S M Z Z S Z A M p 3 % ",
"A M m Z G A S Z S Z S Z S S S Z S Z V S S M s , O S z p B A Z H A Z S S Z S Z S G S Z Z Z D V t 3 + ",
"Q Y Z H S Z G M S S S A S S S S Z Z A S S V s < # E m w K S m S S S Z S Z S S S Z D M M S S V s 3 + ",
"i.[ c S S M S S S Z Z S S Z A Z S S S S A m d < & O.R p V S Z S Z S Z S A S Z Z M S A Z P V x h 3 + ",
"&.D r v S A G S S S S S Z Z S S S Z A S Z m s < > ! ! m A Z S S S S S Z S S S S S S S A V z s p < + ",
"k.I f m H S S Z Z S Z Z S S Z S S Z A F D A g , , I I K L Z Z S S Z S Z Z S S Z S Z S M z p u g 3 + ",
">.E H S S Z S S S A S S S Z S S Z Z S Z Z m s < + V S M D Z S D A S Z S A S S S S m S m t s i g 3 + ",
"d z S M S Z A Z S Z S Z S A S Z Z A D m z d p 6 , ! R C S A F A Z S S S Z S Z S G A I n e i i u < + ",
"5 s P m S S A C M G Z M S G M M C D A S z j p 6 & ( U V L S m K Z Z S m S D m P Z Z G m f j h s 3 + ",
"  8 K D D S S D S S S G S A M H D Z v S D V k < @ m M m A S S K D m G Z S Z S Z H Z Z A S I V s 3 + ",
"Y P D M Z Z S C M M Z Z A Z Z A m S H S n s u < , / U D K Z M S A f m G M M H Z V Z Z Z D K N s < + ",
"v./ z A D S D Z M S S A Z S H M D S V z s u s 3 @ =.R z K H b D x 9 f A H S Z Z Z S S Z S m z s < @ ",
"=.S r N K A S S S Z S S M V S Z P V n t s s h , @ &.V s N H m H l # h S S S Z Z Z S S S A z d p 3 + ",
"v.G 0 j j j m S D z z Z H S V M d j h s u i g < , o.T x l f z V N   u n h N I A S S A V z p p p 3 @ ",
">.V e s i e z S A d s x V V V x e u e i u i u < % } ( n k u s x l * 3 q u j V n V V M z p u p u 1 @ ",
"m.I u u h h g r p p h g e p d p s g a g < @ % + , a.P i g s e k g s , , g g s s s u s s p g u @ % + ",
"g u 3 3 3 3 3 3 < 3 < < < 3 3 < < 3 3 1 > @ @ % - i i < < 3 < 3 3 < > > < 3 3 3 < 3 < 3 3 3 > % % % ",
"% + O O @ + + % + % % @ @ @ + @ @ % % % % - % - + % @ + % @ O % @ @ + + + @ % @ % @ % + % % % + - % "
};
